<svg xmlns="http://www.w3.org/2000/svg" viewBox="0 0 87.51 13.528"><defs><style>.a{opacity:0.6;}</style></defs><g transform="translate(0 -0.1)"><g transform="translate(12.451 2.996)"><path d="M73.277,14.63l-.452,1.018c-.294-.09-.566-.181-.837-.249a3.222,3.222,0,0,0-.769-.09,1.715,1.715,0,0,0-.973.249.693.693,0,0,0-.362.611.605.605,0,0,0,.271.52,3.151,3.151,0,0,0,.679.362q.407.17.882.339a3.987,3.987,0,0,1,.882.43,2.423,2.423,0,0,1,.679.679,1.823,1.823,0,0,1,.271,1.041,2.277,2.277,0,0,1-.181.882,1.71,1.71,0,0,1-.52.679,2.407,2.407,0,0,1-.9.43,4.312,4.312,0,0,1-1.267.158,4.56,4.56,0,0,1-.814-.068,4.654,4.654,0,0,1-.656-.158c-.181-.068-.362-.136-.52-.2a2.971,2.971,0,0,1-.385-.2l.543-1.086a4.446,4.446,0,0,0,.9.362,3.2,3.2,0,0,0,.86.136c.113,0,.271-.023.475-.045a1.77,1.77,0,0,0,.566-.158,1.682,1.682,0,0,0,.475-.294.665.665,0,0,0,.2-.5.762.762,0,0,0-.271-.588,2.456,2.456,0,0,0-.679-.407q-.407-.17-.882-.339a5.252,5.252,0,0,1-.882-.407,2.452,2.452,0,0,1-.679-.588,1.369,1.369,0,0,1-.271-.882,1.774,1.774,0,0,1,.158-.747,1.633,1.633,0,0,1,.452-.656,2.019,2.019,0,0,1,.769-.475,3.211,3.211,0,0,1,1.086-.181,4.231,4.231,0,0,1,.769.068c.249.045.475.09.656.136a2.878,2.878,0,0,1,.475.158A2.483,2.483,0,0,1,73.277,14.63Z" transform="translate(-68.3 -13.906)"/><path d="M107,17.755a3.455,3.455,0,0,1,.294-1.448,3.863,3.863,0,0,1,2.013-2.013,3.559,3.559,0,0,1,1.47-.294,3.455,3.455,0,0,1,1.448.294,3.863,3.863,0,0,1,2.013,2.013,3.767,3.767,0,0,1,0,2.918,3.863,3.863,0,0,1-2.013,2.013,3.767,3.767,0,0,1-2.918,0,3.863,3.863,0,0,1-2.013-2.013A3.559,3.559,0,0,1,107,17.755Zm1.244,0a2.532,2.532,0,0,0,1.561,2.375,2.449,2.449,0,0,0,1,.2,2.343,2.343,0,0,0,.973-.2,2.465,2.465,0,0,0,.792-.543,2.615,2.615,0,0,0,0-3.665,2.625,2.625,0,0,0-.814-.566,2.535,2.535,0,0,0-1.991,0,2.209,2.209,0,0,0-.792.566,2.849,2.849,0,0,0-.543.814A3.112,3.112,0,0,0,108.244,17.755Z" transform="translate(-98.245 -13.751)"/><path d="M158.2,21.675V14.3h1.244v6.2h3.574v1.176Z" transform="translate(-137.863 -13.983)"/><path d="M198.084,20.591a1.811,1.811,0,0,0-.113-.249c-.045-.113-.113-.271-.181-.452s-.158-.362-.249-.588c-.09-.2-.181-.43-.271-.656h-2.534l-.814,1.945H192.7c.023-.068.09-.2.181-.452s.226-.543.385-.882c.158-.362.317-.747.5-1.176s.385-.882.566-1.335c.2-.452.385-.9.566-1.335s.362-.837.5-1.176c.158-.362.271-.656.385-.882.09-.249.158-.385.181-.452.023.068.09.2.2.452s.226.543.385.882c.158.362.317.747.5,1.176s.385.882.566,1.335c.2.452.385.9.566,1.335s.362.837.5,1.176c.158.362.271.656.385.882.09.249.158.385.181.452Zm-2.941-2.986h1.674l-.724-1.765a.73.73,0,0,1-.045-.136c-.023-.09-.045-.158-.068-.226a1.22,1.22,0,0,1-.068.226.73.73,0,0,1-.045.136Z" transform="translate(-164.558 -12.9)"/><path class="a" d="M240.377,14.63l-.452,1.018c-.294-.09-.566-.181-.837-.249a3.222,3.222,0,0,0-.769-.09,1.715,1.715,0,0,0-.973.249.693.693,0,0,0-.362.611.605.605,0,0,0,.271.52,3.151,3.151,0,0,0,.679.362q.407.17.882.339a3.987,3.987,0,0,1,.882.43,2.423,2.423,0,0,1,.679.679,1.823,1.823,0,0,1,.271,1.041,2.277,2.277,0,0,1-.181.882,1.71,1.71,0,0,1-.52.679,2.407,2.407,0,0,1-.9.43,4.312,4.312,0,0,1-1.267.158,4.56,4.56,0,0,1-.814-.068,4.654,4.654,0,0,1-.656-.158c-.181-.068-.362-.136-.52-.2a2.972,2.972,0,0,1-.385-.2l.543-1.086a4.447,4.447,0,0,0,.9.362,3.2,3.2,0,0,0,.86.136c.113,0,.271-.023.475-.045a1.623,1.623,0,0,0,.566-.158,1.682,1.682,0,0,0,.475-.294.665.665,0,0,0,.2-.5.762.762,0,0,0-.271-.588,2.456,2.456,0,0,0-.679-.407q-.407-.17-.882-.339a5.251,5.251,0,0,1-.882-.407,2.452,2.452,0,0,1-.679-.588,1.369,1.369,0,0,1-.271-.882,1.774,1.774,0,0,1,.158-.747,1.633,1.633,0,0,1,.452-.656,2.019,2.019,0,0,1,.769-.475,3.211,3.211,0,0,1,1.086-.181,4.231,4.231,0,0,1,.769.068c.249.045.475.09.656.136a2.879,2.879,0,0,1,.475.158A2.484,2.484,0,0,1,240.377,14.63Z" transform="translate(-197.599 -13.906)"/><path class="a" d="M276.2,14.3h1.244v7.375H276.2Z" transform="translate(-229.169 -13.983)"/><path class="a" d="M304.664,14.3v1.176h-1.832v6.2h-1.244v-6.2H299.8V14.3Z" transform="translate(-247.43 -13.983)"/><path class="a" d="M339.5,21.675V14.3h4.909v1.131h-3.665V17.4H344v1.154h-3.258v1.968h3.8v1.154H339.5Z" transform="translate(-278.149 -13.983)"/><path class="a" d="M381.877,14.63l-.452,1.018c-.294-.09-.566-.181-.837-.249a3.222,3.222,0,0,0-.769-.09,1.715,1.715,0,0,0-.973.249.693.693,0,0,0-.362.611.605.605,0,0,0,.271.52,3.15,3.15,0,0,0,.679.362q.407.17.882.339a3.987,3.987,0,0,1,.882.43,2.423,2.423,0,0,1,.679.679,1.823,1.823,0,0,1,.271,1.041,2.277,2.277,0,0,1-.181.882,1.71,1.71,0,0,1-.52.679,2.407,2.407,0,0,1-.9.43,4.313,4.313,0,0,1-1.267.158,4.56,4.56,0,0,1-.814-.068,4.654,4.654,0,0,1-.656-.158c-.2-.068-.362-.136-.52-.2a2.972,2.972,0,0,1-.385-.2l.543-1.086a4.446,4.446,0,0,0,.9.362,3.2,3.2,0,0,0,.86.136c.113,0,.271-.023.475-.045a1.623,1.623,0,0,0,.566-.158,1.682,1.682,0,0,0,.475-.294.665.665,0,0,0,.2-.5.762.762,0,0,0-.271-.588,2.456,2.456,0,0,0-.679-.407q-.407-.17-.882-.339a5.251,5.251,0,0,1-.882-.407,2.452,2.452,0,0,1-.679-.588,1.369,1.369,0,0,1-.271-.882,1.774,1.774,0,0,1,.158-.747,1.632,1.632,0,0,1,.452-.656,2.019,2.019,0,0,1,.769-.475,3.211,3.211,0,0,1,1.086-.181,4.231,4.231,0,0,1,.769.068c.249.045.475.09.656.136a2.88,2.88,0,0,1,.475.158A1.347,1.347,0,0,1,381.877,14.63Z" transform="translate(-307.089 -13.906)"/></g><g transform="translate(0 0.1)"><path d="M4.956,4.376a3.506,3.506,0,0,0-.543,4.208L9.164,3.855l1.222-1.222,1.289-1.289A5.963,5.963,0,0,0,9.164.1L7.625,1.706h0Z" transform="translate(-3.056 -0.1)"/><path class="a" d="M7.33,22.1,0,29.43a6.49,6.49,0,0,0,2.511,1.222l1.606-1.606,2.669-2.669A3.588,3.588,0,0,0,7.33,22.1Z" transform="translate(0 -17.123)"/></g></g></svg>