<svg xmlns="http://www.w3.org/2000/svg" viewBox="0 0 1008.85 651.45"><title>worldmap</title><g id="Layer_2" data-name="Layer 2"><g id="Layer_1-2" data-name="Layer 1"><polygon points="905.21 540.71 905.14 538.93 904.34 536.38 902.08 533.78 900.78 532.61 898.85 530.8 898.33 527.29 897.49 527.84 896.36 526.54 895.33 527.15 894.34 524.2 892.8 522.37 893.19 521.6 891.13 520.19 889.12 518.76 886.16 517.26 885.32 515.42 885.59 513.92 884.78 511.26 884.07 510.91 883.67 509.58 883.09 507.15 883.4 505.78 881.97 504.59 880.9 503.19 879.15 504.25 878.28 502.31 878.36 501.31 878.15 499.69 877.12 498.18 876.99 496.91 876.29 496.57 876.12 494.93 875.13 493.15 873.8 494.51 873.73 495.35 873.21 496.89 872.49 498.51 872.9 499.41 872.43 499.92 872.04 502.2 872.35 503.83 872.15 504.68 872.54 506.05 871.71 508.31 871.37 509.85 870.79 511.16 870.27 512.64 868.61 513.54 866.13 512.63 865.71 511.74 864.16 510.95 863.35 510.92 861.37 509.25 859.89 508.23 857.77 507.32 855.62 505.77 855.47 505.17 856.42 503.83 857.29 502.31 857.01 501.34 857.77 501.26 858.89 500.03 859.76 498.29 858.19 496.58 857.45 497.2 856.43 496.96 854.82 497.76 853.1 496.89 852.27 497.19 850.04 496.5 848.58 495.36 846.58 494.59 844.35 495.21 846.89 496.37 846.92 497.46 844.82 497.94 843.35 497.59 841.56 498.65 840.17 500.48 840.56 501.12 839.47 501.77 838.03 504.23 838.52 505.52 837.12 505.31 835.48 505.3 834 503.67 831.78 502.24 830.3 502.67 828.91 503.13 828.87 503.71 827.64 503.37 827.59 504.31 826.25 504.78 825.54 505.96 823.98 507.42 823.68 509.38 822.54 508.8 821.45 510.55 822.37 511.82 821.68 512.16 820.43 509.51 818.17 512.36 818.1 514.02 817.98 515.09 816.41 516.52 815.65 518.13 814.22 519.37 811.36 520.21 809.8 520.14 808.94 520.46 808.53 521.09 806.93 521.4 804.77 522.48 804.03 522.12 802.69 522.37 800.48 523.49 799.08 524.78 796.76 525.8 795.94 527.25 795.72 524.92 794.13 527.9 794.44 529.71 794.08 531.13 793.54 531.83 793.18 533.81 793.86 534.78 794.14 535.77 795.5 538.14 795.52 538.83 795.18 538.32 793.12 536.97 793.93 539.41 793.48 538.93 793.06 539.16 793.45 540.5 795.05 543 795.4 545.49 796.64 546.75 796.7 547.58 797.82 549.7 797.7 551.5 798.18 553.43 799.65 556.69 799.95 558.57 799.61 560.88 799.7 562 799.32 562.62 797.85 563.1 797.77 565.38 799.39 566.06 802.43 568.27 804.37 568.27 806.52 568.41 807.93 567.28 809.26 566.38 810.11 566.53 811.81 564.71 813.65 564.56 815.62 564.2 818.05 564.8 818.1 564.81 819.88 564.5 822.38 564.42 823.49 562.97 824.03 561.26 826.38 560.51 829.29 558.85 831.94 559.07 835.18 557.95 838.78 556.78 843.69 556.48 846.32 558.04 848.35 558.16 851.66 560 851.16 560.73 852.77 562.08 854.47 564.44 854.37 566.29 856.94 567.93 858.09 565.03 859.78 563.92 861.73 561.51 861.88 563.27 860.85 564.85 860.41 566.83 858.52 569.24 861.83 568.4 862.95 566.48 863.45 568.32 862.41 570.21 865.38 570.66 866.66 571.96 867.28 573.62 867.82 576.35 869.71 578.63 872.53 579.69 874.09 579.93 875.67 580.49 878.24 581.52 880.79 578.85 881.81 578.4 881.43 579.98 883.31 580.66 885.79 582.35 887.64 580.67 888.91 579.31 891.41 577.91 894.57 577.78 896.36 576.43 896.2 575.21 896.55 572.87 897.25 570.33 898.31 568.65 899.15 565.71 900.1 564.01 901.1 561.48 903.18 559.85 904.45 556.75 905.01 554.38 904.95 552.52 905.7 549.7 906.19 548.22 906.36 545.35 906.36 545.28 905.02 542.61 905.21 540.71"/><polygon points="889.59 588.22 885.9 589.43 883.29 588.19 881.11 587.78 881.03 589.83 882.66 593.1 883.03 595.56 884.85 599.04 886.68 599.17 887.4 599.43 889.28 596.86 890.44 598.09 890.77 594.55 891.74 593.23 891.53 588.51 889.59 588.22"/><path d="M375.79,477.76l-2.45-.12-2.08-.77-3.59-3.13-4.2-2.35-4.22.11L353.76,470l-2.89.76.37-1.24-1.5-1.79L345,466l-3.66-1-1.84,1.58-.09-2.5-5.09-.45-.63-.61,2-2.18-.09-2.2-1.54-.48-1.54-4.78-.77-1.71-1,.13-.41-1-3-2.4-2.79-.91v0l-.33-.09-.17,0h0l-2.87-.73-2.44.22-.28.47-3.11-.52-2.63-2.35-.92-.06-.07-1.32-1.8-1.9-1.87-1.06-1.19-.72-1.32.07-.43-2.16L303,435.81l1.91-.25L305,433l-.86-.15-1.86.43.06,1.21-1,.95.43.21-1.09-.11-.69-1,2.06-.73-.08-.49-3.37,0-3.71.19,0,.81-1.38.76-2-.32-1.63-1.29-3.08.29h-2.29l-.09-.82-2-1.7-1.91-.05-1.1-2.16-1.33,1.23.36,1.25-3.44,1.15.16,2.42.83,1-.54,1.76-.87.13-.92-1.94,1.19-1.58,0-1.65-.74-1.05,1.45-.29.09-.8.61-1.08-.92-.94-1.21-.2-1.41,1.44-1.08.62-2.13,1.39-2.31-.24-.23.61-1.67.05-1.75,1.43-.54,2.52,0,.74-1,.25-2.14,2-1.26-.08-1-.72-.91-.84-1.33-.54-1.3-.09.1-.27-2-.21-1,.88-1.7.58-1.15.68-1.21.19-.84-.77-.36.3-.77-.08,0-.47-.77-.77h0l-.35-.31-.09-.1h0l-1.21-1.11-1-1.11-.63-1.33,0-.05-.14-.15-.13-.28-.06.06-.21-.23-.1-.58.58-.74-.2-.81.22-1.06.47-.31-.09-1.47-.15-.69.09-1.19.29-1.11.68-1-.29-1.1.11-.52.12-.14.5,0-.28-.29.19-.21-.4,0-.68-.73-1.07-.48-.81-.65-.85-.54-.51-.08-1.37-.43-.6.27-.65.06-.65-.19-1-.17-.38.37-.82.29-1.23.07-1.33-.26-.37.11-.23-.2-1,.05-.57.47-.15-.06-1-.47L227,419l-.48-.28.38-.68.5-.09.6-.86.39-1.66-.17-.27.29-1-.25-.44.42-1.16,0-.81.63.67.83-2.7.47-1.42-.51-.51.59-1.62,1.53-1.8.11-1.64-.85-.79-1.77.26-2.51-.1-3.05.71-2,.83-.53.94-.26,2.56-.62,1.62-1.69,1.14-1.72.49-2.07.53-2.18.3-2.31.77-1.1-1.16-3-.79-1-1.35-.64-1.66-1.86-2.23-.55-2.25-.87-1.49-.47-1.58.26-1.44.2-4,.48-2.17,1-2.48.28,0-.15-.3.11-.28-.24,0-.4-.79-.13-1.42,0-2.11.61-1.33,1.47-1.45,2.75-1.35,2.57-2.37,2.26-.73,1.68-.22,2,.74,2.4-.39,2.07,1.67,2.18.11,1-.58,1.07.48.86-.69-.72-.75.05-1.27-.39-.68.86-.37,2-.22,2.53.37,3.13-.41,1.65.75,1.37,1.51.66.21,2.82-1.45.92.42,2.14,2.61.73,1.64-.57,2.08.46,1.34,2.79,5.09,1.08.75.45,1.39,1.6.43,1-.47.73-2,.14-1.28.09-2.15L250,382.17l0-1.33-1.26-2.33-.94-2.72-.49-2.2.42-2.21,1.26-1.86,1.54-1.54,3.15-2.21.4-1.13,1.32-1.14,1.41-.22,1.86-2,2.92-1,1.88-2.67L263,354l-.32-1.35-.77-.23-.12-3.31-.25-.15.29.08-.28-1,1.33,1.26-.89,2.45.67.36,1.69-3,.94-1.45,0-1.53-.73-.66-.28-.95.23.22.58.21.3,1.31,2.36-3.22.71-3-.67-.14.13-.15,2,0,4.45-1.24-1.28-1.08-2.35.4.57-.26,1.6-.18,1.26-.2,2-.63,1.35.07,2.08-.67.27-1.35-1.53-1.53.4,1.87-.69-.05-.84-1.81,0-1.89.44-.79,1.44-2.21,2.9-1.13,2.9-1.35,3.16-2-.46-1.25,2.87-.45,3.62-.1-4.26,2.85.12,3.64,2.45.33,3.17-2.84,2.75-1.56,6.21-2.35,3.79-2.85-2-1.59L306,314l-3.14,5.09-4.43.56L295,317.69l-.89-2.95-.86-4.34,2.74-2.93-2.76-2.33-4.3.45-6,3.56-4.51,5.45-1.52.42,2.71-3.19,4-5.52,3.52-1.87,2.36-3.1,2.77-.29,4.17,0,6,.93,4.86-.73,3.55-3.64,4.56-1.57,2.09-1.62,2.13-1.79-.2-5.38-1.22-1.91-2.14-.62-1.09-4-1.86-1.59-4.49-1.3-2.51-2.79-3.58-2.72,1.1-3.13-3.15-6.36L296.86,256l-2.36-5.38-2.14,3-2.65,6-3.79,2.78-1.94-3-2.49-.83-.91-6.8.08-5-5.07-.45-.8-2.12-3.53-3.55-2.75-2.16-2.38,1.63-2.75-.55-4.93-1.69-2.17,1.56,1,9.35,1.19,5-3.34,5.81,3.49,4.13,1.87,4.36.23,3.32-1.51,3.41-3.12,3.39-4.72,2.4,2.13,2.72,1.43,7.28-1.47,4.54-1.92,1.29-4-4.09-2-5.08-.87-4.72.48-4.4-3.3-.51-4.56-.27-3-2.07-3.45-1.35-2-2.33-2.89-2-5.29-2.26-3.78,1-1.23-3.71-1.3-5.14-4.07-.89.14-6.15,1.08-4.43,3-6.56,3.38-4.82,3.35-.8.2-4.15,2.09-2.54,4-.42,3.31-4.48.85-2.94,2.71-5.78.76-3.13,2.69,2,4-1.11,5.66-5.08.38-3.71-2-3.93,2.06-4-.17-4L244,188.39l-4.23-1.21-4.27-.67-.15,9-2,6.48-2.71,4.91-2.45-4.48.84-5.62-3.62-5.43L221.93,197v-7.29l-5.08-1.59,2.39-3.84-3.89-9.76-2.88-4-4-1.55-3.42,6.63-.25,9.56,3.31,3.31,3,4.84-1.22,7.39-2.23-.2L206.29,205l0-5.44-4.58-2.72L199,198.28l.31,4.55-3.85-.17-4.27,1.15-4.95-3.34-3.07.59-2.72-4-2.42-2-2.32.81-3.52.36-2,2.86,2.85,3.18-2.7,3.3-2.93-4.33-2.55,1.38-7.47.86-4.61-1.45,3.82-3.62-4.05-4.18-2.82.52-3.78-1.29-6.53-2.88-4.32-3.39-3.65-.51-1.1,2.44-3,1.15-.41-6.54L123,189.56l-4.58-7.06-2.3-1.06-.67,4.15-1.8,1.63-1.88-3.32-4.8,2.15-4.17,3.5-4.16-1-3.49,2.57-2.41,3.2-2.7-.66-4.37-3.76L80,187.81v.08l-2.7-1L73,184.37l-3.74,1.34-2.07-1-5.43-.8-6-2.66-2.88.84-4-1.34.17-2-5.12-.55-1.1,1.45L40.92,176l-4.48-1.93-4.34,4.63-2.54-.56L24.18,182l-2.77,1-2.9,4-.7,3.94-3.42,3.46-5,.25-1.71,4.38,4,2.47,2.63,3.09,2,3.64,3.47,2.77,2.08,3.94-5.24.24.38-3.47H14.37L8,215.08l-4.16,3,3.71,4.08,1.2,2.71L13,226.53l3.94-.72,2.34,1.52.95-1.59,2.86-1.38,1.11,0-1.89,2.29,1.7,1.26.48,2.68-1.94,1.78-2.07-.55-2.23,3-1.81-.94-2.5.5-1,3.25-2.27,3.34-1.15,3.61L11.67,247v3.28l2,1.4,2.48,2.75,3.65-1.07,1.61,1.76-.48,1.93.26,3.5h2l2.6-2,1.16,3,.82-2.09,1.75,2.62,1.56-2,.83.86,2.76-1.4-1.14,2.52-.49,4-2,1.77-.65,1.05-3.85,3-1.38,2-3.44.55-3,2.73L16,278.72l-3.24,2.4.64,1.18,5-1.44,2.39-1.65,2.84-1.66,2.54-1.34,1.93.38,3.44-2.23L32.4,272l4.39-2.63.69-2.29,2.75-1.55,3-2.21,2.81-4.06-2-2.62,3.88-3.8,1.94-3.79,3.3-3,.51,1-2.87,1.7-1.29,5.68.44,3.6,3.41-1.27,2.5-1.87L59,253.74l1.77-.41-.58-4L63,248.28l3.26,2.37,5.58,2.62,3.89-.48,4.84,2,2.63,1,5.77,5.6L92.32,263l4.54.15,2.53.32,1.46,4.79,3.62,4.17.79,4.4,2.53,1.61,1.53,1.81.06,2.37,3.4,3.46.5,3.8,3.55,1.94-.39,2.68,1.63,4.13,5.14,1.84,2,1.87,5.49,4.28h.16l.92,3.36.44,3.32-.37.59-1.36-3.55-4.38-1.54-.47,1.14.85,2,.88,3.49.51,5.37-.67,7.08-1.12,3.68.91,2.95.1,3.11-.63,3.15,1.52,2,.38,2.89,2.25,3.14,1.15,1.08-.1.77,2.4,5,2.69,3.4.34,1.9.84.65,2.59.33,1,.91L143,363l.3.93,1.37.41,1.74,1.83.35,1.28h0l.08.22.09.34h0l1.06,2.74,2.34,4.73,1.07,2.08,1.68.91,2.05,2.16-.09,1.23-.9,1-1.15-.18-.43.51,1.79,2,1.77.79.84,1,.41-.44,3,2.16.39,1.56-.1,2.37,1.55.84,2,1.46L166,396.6l.78,1.95.77,0,1.32-1.24.09-.73-1.09-1.45-1.19-1.48-1.25-.09-.13-1.41-.82-1.55-.8-1.29-.95-3L161,384.76l-.57-1.07-.85-.82-.61-2.18-.5.06-.33-1-.46-.24-.46-.73-2.06-2.18-.93-1.28-.27-2.41-.44-1.48.33-1,1.41.79.93-.13,1.83,1.16,0,1.16,1,2.57,1.48,2.37.12,1L162,381l1.68,1.72,1.44.25.67,2.1,1.71,1.57,1.31.68-.41,1.83.57.85,2.45,1.32,1.37,1.9,2.79,2.36,2.45,3,.91,1.48.26,1.16.93,1.36v.87l-.68.81.25.74-1,.3.82,1.75,1.4,1.87,3.05,1.72,1.19,1.36,3,1,1.48.16.65.71,2.42,1.47,3.23,1.36,2.07.4,2.64,1.34,2.07.55,2.05.78,1.54-.32,2.22-1.07,1.47-.2,2.2.73,1.38.89,3.09,3v0l.09.07.38.37v-.08l1.2.93,1.28.57,1.8.07,1.37.48.81.63,1.59.19,1.17.57,1.06.27,1.79.05.29-.63.55.17.16.29-.23-.21-.6.85,1.59,1.45,1.14.87.6.92,1.35,1.2.76.7-.71.61.92.46-.28.69,0,1,.47.71.91.28.79,1,.83-1-.07-.33.14.09.18.87,1.08.4,1.07.53.69.6.07.44-.38.57.71.74,1.54.65.64.85.15-1h.93l.68.31,1.08.18.56,1.14,1.21.21.15-.21.41,1.4,1.6-.17.44-.45,1-.48L250.14,441l.15-.32.48-.08,1.23-.73.59-1,1-.15,1.27.71.53,1,.42.11-.52.56.66,1.67,1,.86,1.12,1.46.4,2.2-.6.73.64,2.61-.57,1.74,1,.63-.92,1.25-1.12,1.66-1.4.19-.76,1.18.11,1.25-1.13.23.41.95-1.69,1-1.73.68.22,1.24-1,1.77-.49,1.62-1,.45.48,2.62-.65.9,2.07,1.52,1-1.19.37.74L250.17,473,248,474.7l-1,2.15,1.35,2.64-1,1.35,2.21,1.25,2.13,1.8.86,2,1.17,1.33,2.63,5.6,2.78,5.26,2.29,3.62-.45.82,1.22,2.48,2.26,1.89,5,3.18,5.45,2.86.25,1.19,2.8,1.68.56,4,.21,4.83-.88,6.75-.9,6.38-.51,6-1.64,3.89.34,4-.85,2.67.66,4.92-1.18,4.9-1.94,5.44L270.16,575l-1.25.12.25,4.26.79,3.41-1.25,2.4-1,6.91-.91,5.64,2.24.69.87-4.69,1.42.75L270,602l-3.13-1.38-1,6.83L263,611.24l4.22,1.18-2.68,2.88-1.25,4.13v0l.36,7.39,1.39,2.95-.78,2.6.92,3,3.53,2.66,3.07,3.11-3.14-2.5-3.21-1.36,4.43,6,2.88,2.58,3.53,2.71,3,.75,2,1.45,1.78.44,1.47.17,2.54-1.61.79-1.7,1.27,1.54,2.93-.28,1.48-2.81-4.17-1.28-3.56-2.8L284.37,639l-1.06-2.11v-.12l-2.3-.63-2.75,2-.92,3.25-.64,1,.42-4,2.45-1.62,1.28-1.07,2.38,0h0l1.8.35-2.21-3.1-.88-4.49,1.08-1.93,2.58-1.73,1.82-5,3.32-2.39,1-4-2.84-.88-2.62-2.84.74-2.8,2.08-1.93h2.73l.73-2.33.4-3.83,2.16-2.28,2.76-1.26-1.07-2.48L295.21,594l-1.63-1-.37-3.46.86-.78,2.62,1.32,2.95-.53,1.93-1.45-.55-2,.57-2.72-.51-1.86,2.77.32,5.62-.75,4.23-1.93.07,0,2.73-4.59.19-1.93-1.74-1.5.38-2.38-3.57-2.91.11-1.06,1.42,1.54,1.94-.11,2.61,1.47,1.55-.38,2.11.7,3.27-1.94.05,0,1.23-2.15,1.84-1.89,1.3-3.18,1.88-1.52,2.47-2.59,3.13-5.7,1.93-1.72.71-1.69.54-3.24-.47-1.73.39-2.2,2.31-3,3.23-2.39,3.1-.88,2-1.36,4.33-1.15,3.18,0,.69-1.89,2.3-1.33.49-3.15,2.84-3.88.5-3.94.84-1.09.35-2,.78-4.53-.2-5.35.72-1.91.65-.06,2.16-2.59,1.77-3.18,3.95-3.94,1.43-1.84,1.16-4.76,0-.06-1.46-5.39ZM224.45,310.84l0,0,.47-.22-.26-.09,1-1.41,1.6-.67.64-1.06.5-.43,2.47.81,1.91.11.56.47,1,2.45,3,.6-.43,1.05,1.12,1.22-.5,1.64,1.15.49-.44,1-.6-.11L237,315.5l-3,.4-2.36.85-1.87-1.46-1.41-.48,1.07-2.58L226.31,314l-2.23,1.32-2,1-1.7-1.38-2.6.79v-.15l1.81-1.65,1.94-1.62,2.92-1.4Zm36.71,15.46.32.59.14,1.3-1.88,1.14-2.23-.31-2.25-.14-1.1.37-1.09.28-.75-.24.64-1,.74-.4,2-.56,2.28-.51,1.33.78.89-1,.74-.45Zm-18.58,8,1.53.24,2.19-1.28,1.18-1,.71-.15,1.61.4.81-.64,1.3-.46L254,331l-2.3,2.15-2,1.06-1.49.53-1.63,1-1.94.48-1.32-.18-1.43-.63Zm8.34-9.82-2-.47-1.36-2.35-.47.16.35,2.4-1.34,2.16.16,1.89-.2.94-1.47,1-.11-1.19-.53-2.37-1.31-.5-1.78,1.74h-.24l-.09-.65,1.51-1.53.27-1.9-.25-1.93-2.16-1.62-2.71-.92-.43,1.69-.62.4-.25,1-.13-.66L234.31,323l-.77,1.43-.73,1.92-.16,1.76.93,2.39-.08,2.39-1.08,1.75-.5.46-.71.39h-.78l-.15-.14-.72-1.88,0-.91.08-1-.34-1.85,1.13-4.79,1.63-3.4-.94,0L229.16,324l-.06-.07,1-1.28,1.61-2.48,1.85-.35,2.12-.78,2.14.41.13,0,3-.43-1.54-1.77.23-.27.43.7,2.26.53,2.09,0,2.24.4,2.43.76.85,1.17,1.73,2.9Zm10.25,21.94.15-.43.2,1.73Zm14,296.52,1.22-.11-.38.56-3.47-1.58-.51-.4Z"/><polygon points="253.76 385.92 254.05 387.55 257.58 386.97 257.49 386.12 258.41 387.02 258.36 388.67 259.29 389.38 259.89 386.62 257.13 384.86 257.15 385.7 255.32 385.62 253.76 385.92"/><polygon points="257.29 390.9 256.1 390.73 255.37 393.04 256.5 394 257.27 395.89 258.36 395.66 258.34 393.67 257.29 390.9"/><polygon points="139.41 127.37 144.65 122.31 147.32 121.71 149.53 117.38 149.96 107.08 145.79 109.15 141.41 108.97 135.56 117.3 130.69 126.48 134.79 129.19 139.41 127.37"/><polygon points="166.78 106.96 167.78 102.69 163.56 100.43 159.28 101.89 156.87 106.4 161.31 110.89 166.78 106.96"/><polygon points="145.15 136.65 149.33 138.73 161.25 137.51 155.97 141.84 156.37 145.64 160.93 145.38 168.01 140.79 177.61 139.1 179.38 133.69 178.87 127.88 175.63 127.33 173.34 129.1 172.35 125.35 171.38 119.53 168.15 117.95 165.41 122.66 169.31 133.41 164.93 132.66 160.01 125.95 151.85 121.78 149.08 125.26 145.15 136.65"/><polygon points="319.84 296.4 320.51 294.88 318.8 294.61 316.29 296.21 314.45 298.86 311.57 305.74 309.08 308.45 310.27 309.56 308.61 310.96 309.15 312.52 314.79 312.65 317.75 312.41 320.01 313.26 317.92 315.3 320.26 315.49 323.45 311.98 323.92 312.3 323.3 315.71 325.38 316.58 326.88 316.4 328.13 312.56 327.25 309.9 326.85 307.38 325.06 308.04 325.86 305.2 322.73 303.72 321.44 304.77 319.35 303.78 320.32 302.27 318.05 301.15 316.96 302.02 318.33 299.21 319.84 296.4"/><polygon points="130.24 178.66 138 174.27 138 170.32 141.43 164 148.25 157.36 151.98 154.74 148.8 150.31 146.02 147.29 138.81 146.72 134.78 144.54 124.9 146.24 127.73 152.67 125.33 159.03 123.39 165.89 122.14 169.92 128.69 174.67 130.24 178.66"/><polygon points="297.17 316.38 296.07 314.16 294.66 315.84 295.48 317.42 299.19 319.21 300.4 318.91 302.19 316.75 299.07 316.88 297.17 316.38"/><polygon points="302.37 305.03 299.39 303.16 295.56 302.02 294.1 302.58 297.06 304.89 300.8 306.29 302.47 306.19 302.37 305.03"/><polygon points="129.54 308.61 128.23 305.97 125.42 304.19 124.06 302.19 123.05 300.6 120.35 300.13 118.62 299.46 115.42 298.41 115.1 299.78 116.26 302.35 119.14 303.12 119.63 304.32 122.15 305.82 123 307.35 127.78 309.35 129.54 308.61"/><polygon points="200.89 159.36 203.46 154.78 202.64 151.56 197.5 152.86 194.05 150.68 190.51 155.79 193.44 161.75 187.93 160.62 187.86 164.03 194.88 171.14 196.85 174.58 199.77 175.37 204.56 171.82 205.08 163.38 200.89 159.36"/><polygon points="197.95 188.07 195.32 190.72 199.45 194.54 201.76 193.68 205.65 196.11 207.6 193.04 205.82 189.88 204.98 188.35 203.23 186.82 200.03 184.31 197.95 188.07"/><polygon points="239.72 238.69 240.43 240.6 242.69 240.76 246.12 237.27 246.19 235.73 241.96 235.66 239.72 238.69"/><polygon points="252.31 243.96 253.53 240.48 252.7 239.04 251.27 238.88 250.08 240.87 249.92 241.37 250.74 243.32 252.31 243.96"/><polygon points="192.63 185.55 187.48 181.55 182.84 177.4 181.97 171.3 180.22 162.38 177.02 158.43 174.04 156.75 171.29 158.33 173.3 168.02 172.2 170.94 170.1 162.73 167.28 159.26 164.11 164.07 160.3 159.43 154.4 162.14 155.69 158.04 152.51 155.97 144.86 161.92 142.82 165.74 140.4 172.72 145.56 175.17 148.88 175.07 143.11 178.15 144.76 181.63 148.93 181.8 154.86 181.14 159.6 182.85 156.61 184.03 152.67 183.66 148.26 185.1 146.15 186.08 149.83 192.85 152.42 191.94 156.07 193.99 157.63 197.74 162.82 196.98 169.92 195.82 175.22 193.17 178.37 192.7 183.16 194.81 188.46 196.08 189.5 192.9 187.84 190.07 192.27 189.46 192.63 185.55"/><polygon points="264.8 205.78 265.18 204.64 265.15 201.33 262.76 199.06 259.93 200.22 258.69 204.56 259.45 208.41 262.92 208.01 264.8 205.78"/><polygon points="222.37 51.7 224.7 58.96 229.79 65.03 239.69 63.93 245.61 65.78 241.59 71.33 239.53 69.67 231.48 68.93 232.71 77.55 236.66 83.61 235.89 88.61 230.95 92.05 228.56 97.79 233.24 100.51 236.62 108.09 229.77 102.89 227.77 103.99 229.15 113.37 223.98 116.19 224.35 122.41 229.81 123.05 234.04 124.51 242.27 122.68 249.68 125.98 257.37 118.6 257.31 115.2 252.49 115.68 252.15 113.2 256.02 109.41 257.35 104.27 261.63 100.49 264.39 95.57 262.08 88.49 264.12 85.7 260.66 84.01 268.53 82.5 270.34 79.32 276.14 76.71 280.96 63.19 285.52 58.24 292.38 46.74 286.27 46.84 288.55 42.98 295.28 39.02 302.24 29.99 302.36 24.09 297.17 17.97 291.02 14.96 283.53 13.14 271.3 10.13 263.33 14.05 261.87 11.58 253.14 12.58 248.03 15.17 244.21 18.92 242.2 30.01 239.43 24.57 235.65 23.33 231.46 31.43 226.06 34.72 222.76 35.38 218.45 39.35 219.07 46.13 222.37 51.7"/><polygon points="285.33 184.77 282.85 181.36 276.06 177.97 273.08 172.29 267.97 174.24 267.63 170.63 263.68 166.22 257.26 161.35 254.49 165.22 249.39 167.66 249.78 161.97 244.83 151.61 237.4 155.85 235.01 162.98 233.07 157.8 235.27 151.02 227.47 153.88 224.55 157.93 222.36 166.43 222.35 166.48 223.26 175.79 226.97 175.83 224.22 179.51 226.72 182.68 231.33 183.95 237.31 186.38 247.51 188.2 247.55 188.21 252.79 187.14 254.16 184.93 256.2 187.51 258.65 187.97 261.47 192.67 259.57 194.77 265.52 197.53 269.74 201.15 270.79 203.6 271.54 206.75 267.93 213.65 266.93 217.17 267.78 219.37 262.35 220.19 256.92 220.31 254.95 225.49 257.52 227.92 265.98 226.84 265.94 225.25 269.61 228.08 273.62 231.23 272.64 232.99 276.23 236.17 282.31 239.72 290.32 242.24 289.76 239.73 286.8 235.97 283.77 231.85 289.56 235.97 293.39 237.76 294.44 232.96 292.6 226.59 291.41 224.79 287.57 221.73 284.7 217.92 285.02 214.25 288.32 213.44 292.63 219.89 296.35 222.98 301.42 214.87 302.37 209.58 297.82 209.1 293.81 202.43 289.31 200.77 283.01 196.03 288.04 192.49 285.33 184.77"/><polygon points="195.61 140.32 200.49 139.15 201.8 130.69 201.71 124.74 199.55 119.09 199.07 119.15 198.89 120.49 195.08 119.82 190.85 123.91 187.66 123.52 187.86 133.03 192.45 132.16 192.39 138.47 195.61 140.32"/><polygon points="251.27 230.88 248.98 228.47 247.06 228.93 246.83 226.04 243.53 223.94 240.49 221.7 238.71 219.79 237.43 220.72 236.95 218 234.5 217.33 233.49 223.76 233.14 228.79 230.35 232.37 234.56 231.71 235.56 235.51 239.88 232 242.43 228.91 243.87 231.53 248.45 233.12 251.27 230.88"/><polygon points="211.66 143.59 213.29 139.17 212.25 135.63 209.63 131.42 205.31 134.65 203.75 139.81 207.28 142.71 211.66 143.59"/><polygon points="209.07 83.4 213.91 83.28 211.9 86.9 211.83 92.39 214.92 98.29 220.89 100.11 226.03 99.08 231.25 88.27 235.21 83.7 231.75 78.61 229.52 67.92 224.85 64.68 220.19 61.04 216.56 51.36 209.56 52.37 210.81 56.58 208.04 57.79 206.06 63.23 204.1 70.75 205.9 78.07 209.07 83.4"/><polygon points="200.14 101.72 202.6 105.13 207.04 102.16 207.83 96.98 204.43 91.98 202.72 90.95 198.7 90.29 198.93 96.49 200.14 101.72"/><polygon points="182.99 93.42 180.16 97.79 186.73 98.34 191.28 102.71 196.35 104.4 195.18 98.28 193.01 91.47 185.36 86.07 179.46 83.87 179.67 90.03 182.99 93.42"/><polygon points="168.42 94.46 164.53 91.37 162.78 90.59 159.74 95.11 159.68 97.43 164.69 97.44 168.42 94.46"/><polygon points="248.49 156.15 251.61 161.31 252.6 162.04 255.74 160.74 258.7 160.93 261.98 161.24 261.69 158.22 256.74 152.71 250.15 151.6 248.59 152.38 248.49 156.15"/><polygon points="211.35 168.67 214.4 161.65 217.73 159.81 222.06 150.76 216.47 148.19 210.43 147.8 207.57 150.65 206.04 154.97 206 159.93 207.78 168.29 211.35 168.67"/><polygon points="212.6 109.33 212.99 107.58 210.87 104.95 204.79 104.74 205.64 108.9 211.12 109.77 212.6 109.33"/><polygon points="228.31 145.66 234.15 145.47 242.12 143.87 245.75 145.17 250.09 142.82 251.92 139.85 251.28 135.24 248.17 130.82 243.51 130 243.47 129.99 237.72 130.97 233.26 133.39 229.24 132.47 225.58 131.98 223.86 129.38 220.7 126.8 221.33 122.42 218.79 118.24 213.25 118.27 210.16 114.3 204.04 113.45 202.91 118.91 206.29 122.8 212.06 124.24 214.79 129.19 215.13 134.75 216.13 140.88 223.73 144.37 228.31 145.66"/><polygon points="182.79 155.17 180.46 152.8 176.47 153.23 175.36 154.84 180.09 162.14 182.79 155.17"/><polygon points="785.75 409.1 787.07 407.7 786.28 406.29 784.49 406.21 781.33 407.07 779.83 408.53 779.91 411.34 782.48 412.35 785.08 410.84 785.75 409.1"/><polygon points="265.37 407.23 267.36 406.82 267.85 405.81 265.52 404.48 263.65 404.34 263.84 403.58 261.9 402.87 261.02 402.91 256.96 399.74 255.9 398.98 253.3 399.32 252.27 398.3 249.55 397.21 247.28 397.17 244.78 396.94 244.09 397.28 242 397.57 240.48 398.18 239.15 398.89 238.54 399.99 236.62 401.2 238.45 401.64 240 401.27 240.38 400.56 241.49 400.52 243.49 398.97 245.44 399.08 244.66 399.63 245.96 400.42 249.64 400.91 250.43 401.5 253.17 402.36 254.61 402.26 255.22 403.79 256.31 404.79 258.14 405 258.96 405.55 256.77 407.49 261.47 407.14 263.45 407.38 265.37 407.23"/><polygon points="572.36 356.85 569.86 357.85 567.73 357.8 567.32 358.65 565.57 358.81 566.42 360.6 567.99 361.1 571.16 359.58 570.85 358.64 572.6 357.28 572.36 356.85"/><polygon points="309.6 631.51 307.24 630.4 303.57 633.33 305.26 635.81 307.66 633.74 308.87 635.27 312.92 633.82 313.89 631.98 311.32 629.67 309.6 631.51"/><polygon points="974.9 512.9 973.6 512.53 972.32 513.73 972.65 515.31 974.41 515.72 976.35 515.27 976.9 513.45 975.67 512.38 974.9 512.9"/><polygon points="978.48 509.67 977.57 509.83 975.96 510.52 976.47 512.07 978.51 511.38 980.34 510.63 980.65 510.42 981.12 508.53 980.15 508.75 978.48 509.67"/><polygon points="459.64 278.35 461.37 275.66 462 276.6 460.99 278.78 461.77 280.31 465.18 281.16 467 284.02 466.64 286.43 462.47 286.01 461.89 289.4 463.33 291.72 460.43 293.11 461.38 295.26 465.01 295.88 463.35 296.52 458.94 301.46 460.85 302.57 462.86 300.86 465.47 301.37 467.27 299.36 468.49 300.17 473.34 298.94 477.16 298.99 479.89 296.46 478.76 294.13 480.13 292.87 480.5 289.63 477.01 288.72 476.27 287.02 474.5 281.5 472.57 280.72 469.83 274.37 467.16 274.08 469.5 269.88 470.31 265.29 466.91 265.25 464.56 265.85 467.52 260.19 463.73 260.65 461.34 260.2 459.08 264.68 458.04 270.11 458.02 270.2 459.45 272.81 459.64 278.35"/><polygon points="408.98 184.09 402.07 183.77 405.1 179.65 404.31 174.76 407.14 178.83 409.41 182.25 414.79 180.51 413.7 173.35 409.98 167.76 406.33 165.53 407.51 163.48 413.24 167.43 413.19 162.82 409.85 156.59 413.34 156.56 417.5 154.99 418.48 151.24 415.43 147.35 421.53 146.61 417.88 137.41 420.81 136.41 420.14 126.6 420.13 126.52 415.07 120.35 419.43 116.67 424.06 116.14 420.59 107.53 420.49 92.38 422.75 82.8 426.11 71.01 420.47 70.33 428.45 67.78 430.06 63.81 441.45 51.18 441.54 51.09 439.92 42.72 431.28 38.8 417.56 46.42 411.03 52.74 413.88 42.59 411.39 34.95 405.81 41.22 397.46 34.38 387.63 36.6 386.41 33.46 401.17 31.47 412.02 30.53 417.37 21.96 399.7 3.23 399.64 3.17 377.15 0.01 377.11 0 367.02 2.46 363.48 11.36 353.68 10.29 344.17 24.02 344.13 24.08 343.75 33.24 343.75 33.32 349.03 41.85 345.02 37.45 341.06 35.81 334.19 27.83 326.81 39.06 323.88 33.01 315.1 33.19 306.39 36.42 299.57 41.79 300.74 50.32 296.82 52.22 287.02 64.62 284.48 71.5 292.06 77.28 291.03 82.67 280.85 89.77 270.14 96.7 269.73 102.29 276.15 107.81 287.03 110.89 282.63 111.42 274.94 115.54 279.98 123.46 283.33 127.31 290.29 126.43 297.73 125.96 303.6 126.8 310.99 133.37 310.96 137.98 314.56 142.18 317.91 153.04 320.15 159.81 321.81 163.25 318.66 171.8 321.24 174.22 324.01 172.99 326.4 175.86 330.53 180.51 325.73 178.62 322.89 178.75 321.74 183.45 321.94 189.15 325.59 191.92 328.29 190.69 329.83 189.49 332.56 187.05 332.04 192.62 330.96 195.8 326.74 198.66 323.9 207.51 325.78 210.06 324.78 215.21 328.69 221.51 329.06 227.34 330.52 231.61 335.36 239.26 337.22 245.03 340.06 248.38 345.68 248.41 349.83 253.05 354.08 252.69 356.83 242.05 355.71 237.41 360.2 232.55 361.67 228.31 361.72 223.73 364.05 219.75 368 218.18 371.71 216.53 373.69 216.23 379.77 211.3 383.71 203.62 386.51 200.85 389.5 200.81 397.78 198.19 405.49 192.01 413.4 184.61 408.98 184.09"/><polygon points="545.64 357.69 543.55 357.87 541.83 356.56 541.1 358.62 544.59 359.31 544.56 359.93 549.04 359.61 549.6 358 547.97 358.44 548.03 357.95 545.64 357.69"/><polygon points="269.58 412.27 271.26 412.48 272.57 412.28 274.22 412.72 274.36 413.52 275.4 414.18 276.61 412.02 277.26 411.72 277.65 412.39 278.98 412.17 279.46 411.66 280.31 411.78 281.52 411.67 282.97 412.36 284.31 410.82 282.67 409.53 281.59 409.44 281.69 408.52 280.03 408.59 279.52 407.53 278.67 407.62 277.07 406.89 274.65 406.84 274.32 407.33 272.02 406.88 270.17 406.75 269.23 407.97 271.18 408.48 271.16 409.52 272.29 410.64 271.62 411.08 269.6 410.86 266.8 410.41 266.44 411.76 268.22 412.84 269.58 412.27"/><polygon points="834.62 458.87 834.38 457.01 833.09 458.42 832.45 460.81 833.3 464.43 834.57 466.45 835.86 465.91 834.57 464.28 834.91 462.93 836.41 463.21 836.58 460.46 836.26 459.11 834.62 458.87"/><polygon points="833.75 473.32 836.09 473.44 837.62 473.26 839.91 473.49 842.88 474.93 841.51 472.05 838.28 471.19 834.62 471.32 833.75 473.32"/><polygon points="818.82 468.08 819.97 466.54 821.29 466.97 821.64 465.05 815.99 466.08 814.6 467.24 812.35 465.01 812.69 463.2 814.94 462.83 819.55 462.69 822.31 463.24 824.55 462.67 826.98 459.69 826.22 458.73 823.31 460.85 820.21 460.97 816.73 460.59 814.4 459.72 811.91 461.89 811.24 463.14 809.82 467.38 809.43 469.54 808.23 471.44 809.22 473.62 810.35 473.64 810.73 476.07 809.9 478.76 811.34 479.74 813.43 479.26 813.31 475.05 813.08 471.97 814.41 471.37 814.22 473.8 816.21 475.41 815.86 476.46 816.77 477.47 819 476.59 817.91 478.43 819.29 479.67 821.08 478.69 821.1 476.62 818.63 473.46 819.13 472.5 816.58 469.06 818.76 468.1 818.82 468.08"/><polygon points="851.28 480.74 851.64 483.54 853.5 481.07 853.52 479.56 852.61 478.39 851.82 479.66 851.28 480.74"/><polygon points="814.17 492.56 814.4 491.45 813.28 490.47 811.72 489.56 808.35 490.28 812.73 492.62 814.17 492.56"/><polygon points="824.54 492.26 826.37 490.14 828.68 489.33 831.65 488.08 833.07 487.03 831.46 486.5 830.54 486.87 828.58 486.97 826.06 487.63 825.72 488.31 822.96 489.43 821.71 491.21 821.38 492.39 821.92 492.93 824.54 492.26"/><polygon points="772.6 475.69 773.33 472.11 771.83 470.18 769.79 469.93 768.89 468.5 768.38 466.43 767.25 466.35 765.89 465.53 767.01 463.26 764.73 461.9 763.13 459.61 760.66 457.6 757.83 457.56 755.21 454.6 753.67 453.46 751.52 451.59 748.98 448.79 744.53 448.23 742.41 448.11 742.73 449.91 745.73 453.08 747.8 454.61 749.25 456.96 751.79 458.74 752.78 460.83 753.6 463.21 756.1 465.61 758.22 469.49 759.64 471.62 761.74 473.86 762.94 475.55 766.56 477.86 769 480.28 772.44 480.21 772.6 475.69"/><polygon points="815.5 488.87 819.9 488.03 820.48 485.83 817.55 487.03 815.78 487.23 814 486.38 811.5 487.04 811.51 488.49 815.47 488.86 815.5 488.87"/><polygon points="828.37 472.26 829.12 473.91 831.31 474.48 832.63 473.31 831.71 472.11 828.37 472.26"/><polygon points="807.16 486.75 806.03 485.92 805.2 487.03 803.65 487.05 802.39 489.16 804.39 489.18 806.32 488.8 809.92 488.17 808.95 486.51 807.16 486.75"/><polygon points="796.73 488.37 800.59 487.08 796.6 485.14 792.44 484.62 791.43 482.82 785.93 481.39 785.29 482.59 780.24 482.32 779.85 481.32 778.59 481.09 776.36 480.02 772.73 479.82 770.47 482.97 773.33 483.2 773.81 484.39 779.11 485.59 780.29 485.24 782.25 485.5 785.53 486.58 788.18 487.09 791.12 487.3 793.61 487.23 796.73 488.37"/><polygon points="780.74 462.49 781.13 464.96 782.55 467.49 783.9 468.23 784.33 472.04 786.89 472.38 788.59 472.25 789.64 473.62 793.02 472.61 794.33 473.44 796.32 473.62 797.47 475.4 800.62 474.16 801.23 475.62 802.5 470.56 802.56 467.92 805.27 466 805.14 463.41 805.99 461.69 809.77 461.31 806.31 458.46 806.78 457.22 804.75 454.61 806.2 452.3 808.4 451.29 807.95 450.03 809.69 449.9 809.96 448.4 807.44 447.49 805.72 446.77 805.6 445.61 804.02 444.05 802.65 444.06 801.19 446.34 799.13 448.2 796.65 449.79 795.73 450.66 795.71 450.63 795.56 450.82 795.36 451.01 795.39 451.04 794.15 452.63 792.2 454.77 788.87 455.38 787.56 455.96 787 458.29 785.07 458.75 783.2 457.88 783.12 457.54 782.93 457.75 782.62 457.6 782.72 457.99 781.08 459.8 780.74 462.49"/><polygon points="451.54 294.96 456.59 292.25 456.66 292.21 458.85 287.95 458.39 284.58 459.93 281.2 456.73 278 454.47 278.2 454.41 277.94 454.14 278.23 453.97 278.24 454 278.37 451.98 280.55 448.06 284.4 449.53 289.23 447.16 294.21 451.54 294.96"/><polygon points="433.82 226.99 437.65 221.77 434.44 217.1 435.1 212.46 430.09 211.93 425.57 215.59 422.04 213.63 417.83 217.34 413.52 212.73 409.01 213.82 406.96 218.67 412.94 220.27 413.04 221.85 407.65 223.24 414.03 226.59 411.2 229.5 419.44 231.62 423.22 232.57 425.73 231.37 433.82 226.99"/><polygon points="498.05 337.99 498.79 340.43 498.9 344.88 500.22 346.06 501.44 344.78 502.85 345.04 503.27 339.87 501.43 337 501.52 337.06 502.56 333.82 502.02 330.06 499.82 331.83 499.2 333.38 499.89 336.09 501.36 336.96 499.86 338.21 498.05 337.99"/><polygon points="257.37 410.86 256.02 411.09 255.54 412.07 257.32 413.26 259.06 413.79 259.95 413.28 262.28 413.22 261.57 411.99 260.01 411.25 257.37 410.86"/><path d="M860.73,352.75l-2-1.74-3,6.29-2.85-.67-5.72,1L845.13,360l-2.79,1.73-1.5,2.12L838,365l1.3,2.6,1.67.9-.68,2.92,1.62,1.51,2-1.54,1.95-5.85-2.47-2.14,2.62-.05,1.93-.89-1.58,2,0,1.82,2.21,1.15.81-2.13,1.2-.65,1.22,1.13,1.83-2.35-.44-1.39-1.8-.63,2.6-.4.11,2.37,2.15,1.48,4.08-3.92,4.83-.21,3.74-1.65,1.56-2.58-.5-1.75,1-2.75,0-3.6,2.59-3.59.08-3.06L872,336.41l-3.32.76-1.27,2.5.48,4.11L866.22,348Zm-11,9.93-1.47-.35,1.21-.58,1.16-.18Z"/><polygon points="868.74 329.07 867.25 332.21 867.68 336.25 871.19 336.18 872.68 332.18 877.04 334.73 879.58 330.85 883.86 329.77 883.14 324.75 880.94 326.6 879.12 325.83 877.01 324.56 873.44 320.09 872.47 323.69 871.68 328.87 868.74 329.07"/><polygon points="702.37 437.58 700.09 435.71 698.72 440.66 698.71 440.71 699.2 444.79 700.67 447.27 703.29 446.59 704.63 445.69 705.08 442.59 703.68 439.56 702.37 437.58"/><polygon points="616.08 501.67 615.37 499.73 614.63 498.52 613.43 497.01 612.26 498.62 612.21 500.33 610.82 502.13 609.34 501.69 609.83 503.26 609.07 504.57 606.77 506.34 605.25 507.92 604.11 507.95 603 508.49 601.47 509.08 599.91 509.19 599.51 511.18 598.51 512.85 598.75 515.67 599.29 517.56 599.91 518.89 599.68 520.65 598.33 522.92 598.32 523.82 597.07 524.32 596.54 526.61 596.53 526.65 596.79 528.86 597.77 531.31 597.96 533.98 598.79 535.77 602.83 537.75 605.35 536.4 607.74 535.63 609.06 531.95 610.13 527.75 611.87 522.08 613.25 517.99 614.36 514.51 614.53 512.13 615.29 511.48 615.57 510.1 615.05 508 615.29 507.6 616.26 509.31 616.97 508.07 617.29 506.53 616.55 505.14 616.08 501.67"/><polygon points="944.48 527 942.79 525.4 940.49 523.54 939.59 522.71 938.34 521.68 936.7 520.64 935.05 520.57 935.58 521.93 937.5 524.13 939.33 525.74 941.35 527.11 943.04 528 944.48 527"/><polygon points="961.38 590.02 960.86 588.79 960.12 586.9 957.82 588.89 957.4 590.96 956.4 591.86 955.11 594.72 953.48 596.64 951.09 598.64 949.14 600.08 947.33 600.81 943.71 604.75 942.11 607.85 942.66 609.59 945.81 609.88 947.63 611.22 950.39 611.32 954.11 608.26 955.73 604.14 956.45 601.67 958.71 600.29 961.22 600.24 960.08 598.17 961.41 596.73 963.25 593.92 964.32 592.12 964.32 590.49 963.35 588.54 961.38 590.02"/><polygon points="972.95 577.92 971.21 577.66 969.1 576.59 968.68 573.96 966.94 572.67 966.89 574.61 965.32 571.77 964.51 568.64 962.27 567.73 960.68 565.76 959.19 566.15 960.52 568.87 962.75 571.93 964.01 573.28 963.93 573.85 965.08 576.21 965.21 578.38 964.76 581.01 962.72 582.27 962.62 583.88 965.71 585.36 966.54 587.17 964.86 590.34 966.18 590.95 966.75 592.12 969.16 590.46 971.68 585.88 972.14 585.13 971.88 583.57 972.5 582.67 974.68 582.74 975.6 580.45 976.33 577.07 974.56 576.56 972.95 577.92"/><polygon points="901.4 473.49 902.63 474.37 903.23 475.35 903.88 477.36 905.16 476.28 904.76 474.58 903.65 473.66 902.53 472.49 901.3 471.79 900.34 471.16 898.67 470.3 897.46 471.35 899.83 472.31 901.4 473.49"/><polygon points="889.67 480.44 885.03 478.71 884.61 477.12 882.98 475.64 881.05 474.21 875.81 472.58 871.09 470.72 871.09 470.67 870.88 470.64 870.6 470.53 870.6 470.59 867.91 470.11 865.84 469.12 863.44 468.15 860.86 468.13 857.52 469.84 855.24 472.7 852.63 471.2 851.87 466.8 851.35 465.61 846.63 464.42 845.14 465.36 840.97 466.09 842.51 467.87 844.99 468.38 846.12 470.06 850.17 470.07 850.24 470.31 848.55 470.26 844.99 471.44 847.46 473.02 847.47 474.17 848.24 475.4 849.6 475.08 850.35 473.85 854.35 476.3 856.73 476.56 862.05 478.88 863.35 481.13 864.02 483.94 862.36 484.67 860.93 487.42 865.02 487.31 865.68 486.54 868.32 487.07 870.7 489.26 870.7 489.39 870.85 489.4 871.19 489.72 871.19 489.41 873.78 489.51 875.44 490.01 877.9 488.92 877.54 486.83 879.05 486 881.35 485.23 884.84 486.4 886.25 488.78 887.9 490.4 890.13 492.24 893.04 492.68 895.36 492.99 896.07 493.75 898.21 493.52 898.66 492.32 895.91 491.22 896.85 490.63 894.3 490.07 894.41 488.75 892.67 488.85 890.92 485.99 888.42 484.12 887.92 482.64 890.54 482.33 889.67 480.44"/><polygon points="896.66 477.31 895.87 477.45 895.45 478.79 894.11 478.98 891.42 478.54 891.08 479.83 892.89 480.71 895.19 481.52 896.81 481.54 899.91 480.14 900.33 479.38 901.8 479.15 902.79 477.36 902.88 475.57 902.15 474.97 900.08 475.03 900.41 476.8 898.99 477.71 898.2 478.65 896.93 478.81 896.66 477.31"/><polygon points="910.48 479 909.64 478.37 909.25 477.3 908.45 477.86 909.1 480.16 910.4 482.06 911.73 483.24 912.75 482.88 913.28 481.79 911.82 480.74 910.48 479"/><polygon points="829.65 437.5 826.86 435.86 827.05 438.25 825.16 438.33 824.69 439.64 822.84 440.31 821.81 439 820.13 440.17 818.27 440.99 817.08 443.56 817.74 444.75 819.98 443.06 821.34 443.18 822.15 442.09 823.54 443.13 822.74 444.38 823.61 446.62 827.2 448.39 828.19 446.77 827.3 444.75 828.22 443.75 829.33 446.86 830.55 443.6 830.38 441.95 829.65 437.5"/><polygon points="808.94 434.41 807.29 436.35 805.26 438.08 803.84 440.1 804.19 440.45 807.91 437.78 809.41 435.82 811.38 434.16 810.7 431.03 808.94 434.41"/><polygon points="816.53 426.85 815.39 425.64 812.4 425.51 814.12 428.13 815.62 429.9 816.53 426.85"/><path d="M811.49,420.22l.43,1.33,1.68,2-.15,1.25,1.64.73,2.5-.41L819.5,427l.68-1,.83,1.21,2.56,1.66.09-.43,1.74,2.22,0,.7-1.72-.24.57,2.23.8.15.13,2.16,1.88-.89-.76-1.93,0-.54,2.24.78-.9-3.63-.87-1.25-3-.07L824,427l-.93-.69.28-1.6L819.56,423l-1.27.35L817,423.1l-.57-2.09.4-2.16,1.64-1,.8-2.6-1-2.09.46-1.2-.4-1.19-1,.9-1.63-.8-1.94,0-1,2.82-.27,4.12-1.18-1ZM814,422.5l.32.26-.58.48Z"/><polygon points="820.97 430.9 818.99 430.9 816.83 429.77 817.42 431.65 817.23 433.09 817.36 434.78 819.47 433.77 819.93 433.36 819.68 434.8 819.01 435.55 818.31 436.48 820.35 438.77 821.41 437.75 822.32 435.94 823.37 434.97 823.74 431.3 821.83 433.81 822.09 432.7 820.45 432.88 820.9 432.46 820.97 430.9"/><polygon points="287.25 410.87 286.71 411.47 286.91 413.07 288.77 412.95 290.98 412.98 291.94 411.99 291.22 411.17 289.7 410.9 287.25 410.87"/><path d="M1003.1,209.24l-8-1.13.61,4.8-1.3-1.2.24-4.43-7.45-7.44L980.31,194l-3.92-3.44-8.12-3.88-.06,0-5.86.49-9.13-2.34-1.36,3.94,2.23,5-3.1,2.21L946.17,189l-5.41.91-5.28-1.57-5,.21-3.72,1.61L923.54,188l.33-5.88v-.09l-2.43-3.64L915.72,177l-11.25,1.61L897.26,172l-2.42-5.41-25.44-6.09-.15,0-3.79,4.18-.09.09,2,8.12L863,171.73l-2,2.44-5.37-2.69-4.74,2.37-4.67-4.15-2.71,9.2-4.08-3.23-3.44-6.82,1.64-3.81-1.32-6.18-4.65-5.28-4.56,0-6.22-1.82-.16,7.52L809.4,158l-.68-4.57-9.18-1.68h-.06l-4.64,1.62-1,2-1.36-6.07-2.69,2-4-2.48-3.2-1.31,1.92-2.79,7.36-5.92,3.16-3.3.71-5.94v-.07l-2.29-4.42-6.37-5.91-.07-.06-8.41-.17-2.27,2.61-.71-5.64-6.06-1.83,3.69-3-5.19-4.54L761.28,112l-2.74,5.41-.76,5.1-5-.2-6.18,6.13-2.2-2.51L736.71,127l-1,3.16-7.32,1.49-5.44,5.5-3.28.31-3.35,7.25,2.2,5.2-5.75,1.25-6.76-.44L701,152.83l.28,10.45,2.18,6.7-4.52-4.52-6,.5L688,169.68l1.21,6-2.38-1.27,1.09-8.49v-.05l-1.55-5.46-1.85.29.66,6.75-5.06,6.09,3.67,7.09-2.22,8.24.7,4.64,3,.63-1.26,4.9,1.61,4.21-2.35,3.38-.76,3.54-3.06,1.8-1.06,2.38-2.71-.86,5.35-9.94,1.25-5.17-3.11-4.75.64-11-.9-5.94-1.71-2.77,2.61-7.17,0-.05-.6-5.4-7.71-2.61-2.25,2-1.84,8.46-5.15,7.95,0,.06.09,2.87,1.48,6.43-1,4,3.44.8.07,1.56,2.81,4-1.68,3.54-9.93-8.61-3.88-2.49-8.54-2.52-1.63,3,2.93,4.58-2.9,4.63-3.13-4.52-4.31,3.3-5.29.21-2,2.55-3-.67,2.77-4.66-2.56-.46-9.87,6.59-6,3.58-.68,4.58-4,1.43-2-2.24,0-3.75,3.63-.93-1.74-4.56-8.48-2.64,2.24,5.11-1.34,4.32,0,.1,2.34,4.28-1.47,4.34-2.4-2.22-2.79-.43-6.73,7,1.87,4.84-2.06,1.39-6.84-4.14-2,2.83,1.73,2.87-.3,2.59-1.87-1.41-3.48-1.91-.18-6.61-.18-3.15v-.09l-4.39-4.9,1.64-.72,12.52,5.3,4.67-1.88,3.27-3.84-.19-5-2.19-3.57-10.64-8.71-7.71-1.91-4.73-5L562.76,189,560,184.42l3.72-2.3-9.18-6.53-5.1,1.76-5.21-.39-4.27,7-4.54-.43-6.22,3.63-7.77,9.94-4.73,5.72-6.74,13.75-5.1,9.26-5.52,6.57L492,237.55l-2.7,4,.9,13.37,1,6,4.07,2.84,3.92-1.3,5.35-6.06,1.66,2.95,2.15,7.57,2.33,5.76.61,3.18-.92-2.58-4.54,1.84.44,2.33,3.25,3.06,1.83-4.32.27,1.42,3.62-.26,1.58-3.91,3.41.49,1.67-5,1-8.69L525.8,259l2.67-6.46-2.75-3.21-2-4,2-8.26,5.37-5.3,4.53-5.21-.44-4,2.63-4.55,4.61-1.85,3.7,3.06.28,2.6-1.8,1.34-6.44,7-2.56,4-1.37,3.65,1.37,5.44-.63,5.83,2.78,1.92,1.69,3.19,4.79-1.24,4.89-2.06,5-.44,2.66,2.42-2.95,2.83-2.75.16-3.06-.92-3.64.84-3.71,1.6.27,3.37,2,2.12.77-.5-.28,2.61-.51,3.76-1.89.09-2.28-4-2.92,2-1.41,3.31-.11,3.74,0,0,0,.17v.38l.06,0,.52,3.62-3.81,1.56-.61,2.06-2.31-.05-.2-1.13-3-.89-3.63,1.68-4.41,2.24-1.75,1.27L514,283.39l-3.38-2-1.67,1.39-2.47.78,0-1.52-2.84-1.13-.05-1.54.06,0-.06-.19v-.33l-.08,0-.65-2,1.84-3.26.87.58.87-2.41-1.61-.81-.3-1.23.79-1.6.15-3.26-2.67,1.73-1,1.41-2.49.32-.88,1.69-.48,1.43.08,5.16,1.14,2.77.13,2.71.61,1.73-1.58,1.92-.42-.85-2.65.29-.53,1-2.24-.13-4,2L486,294.78,484.67,296l-1.95.76v0l-2.83,1.05-.85,3.63-6.29,3.24-3-2.11.94,5.06-4.4-1-3.91,1,.32,3.44,4.38,1.64,2,2,2.85,4.19-.52,7.73L470,328.7l-4.41-.11-2.29.19-3-.66-3.72,0-3.54-.72-4.25,3,1.24,1.8-.13,2.49,0,0v.1l0,.6.08-.08.07.76.56,1.37.07,1.49-.59,2.2-.19,1.4-1.11,1.31-.25,2.51.76,1.52,1.2.31.24,2-.49,3.08,1.75-.46,1.54.51,1.14-.92,2.37.49.75,1.88,1.13,1.3,1.61.34,1.14-1.4,1.66-1.15,2.6.05,3.68-.05,2-2.72,2.18-.72.62-2.37,1.7-1.68L475,344.26l1-2.82,1.74-2,.23-1.15,3.5-.76,2.8-2.61-.16-2.34.29-2.06,3.86-1.18,5.59,1.05,2.55-2.17,1.24-.3,1.64-1.82,1.12-.46,2.22,1.25,1.27.41.84,3.66,2,2.31,2.58,2.47,2.24,1.72,2,.24,1.19,1.46,1.77.67.83,1.57,1.16.46.82,1.75,1,1.95-.51.64-.52,1.68-5.29.73-3.5-.35-.48,2.24,4.14,1.89,1.39.37,2.38,1.45.72-2.17-.42-1.09,1-2.65v1.36l1.59-.37,1.5-3.05,1.22-.22.38-2.21-2-1.31,1-2,2.18.53,1.77,1.94.71-1.78-.33-.77-2.51-2-4.26-2.3.7-.66-.9-1.11-2.22,0-3-2.94-1.42-3.19L511,326.22l-.85-1.84.32-1.08-.15-1.86,2.06-1.29,1.54.4,0,0h0l-.09.05-.68.4.47,0-.06,1.28,1.1,1.77,1-1.91,1.43.5.05,1.25,1.15,1.46-.58.31,2.56,3.08,2.62,1.2,1.64,1.39,2.62,1.39,1.17.72.79,1.24.6.29.35.45-.35,1.08-.24,2.59.26,1.85,1.55,1.22,0,.83.48.25.19,1.06,1.37,1.11-.16.59,1.41,2.1.91,0-.36.48-.72.65.63,1.21.47.1.33.31.26.54-.51.56.44,1.15.87.8.49-.53-.09-.68h.2l.45.84-.11.82.89.59.29-1.48h.19l.45,1.25h1.1l-1.09-3.58.5.34,1.33-.27-.83-1.79.81-.14,1.69,1.43,0-2.67L541.65,347l-1.36-1.44,1-.78-1.53-1.86-.59-2,.28-.42,1.34,1.7h1.68l1.85-.74-1.9-2,2.94-.83,1.43.34,1.48.09,0,.59,1.05,2.05,2.58-2.18,1.15-1.1,3.37-.2.71-1.26-2.58-1.27-.22-.94.07,0-.15-.37,0-.19h0l-.81-1.94,1-2.59,1.32-1.45.12,0,0-.19.24-.26-.19,0,.69-4.17.68.28,1.6-1-.07-1.09,2.15-2.92,1-2.11,2.22-.43.17,1.42,4.48,1,.59.29.33-.3.15.29-3,1.55-.71,1.09,3.13,1.18-.6,1.83,1.86,1,3.89-2.32,3.16-.7.32-.83,2.7,2.58,3.23,1.51,3.53,3.24,1.08,1.22,1.57.45,1.52,1.32.66,2.44-.39,1.47-3.13,1.81-2.36-.33L583,338l-3.94-1.4-5-2.67-4.7.08-3.35,1.08-3.36,2.4-5.43-.5-1.19,2.83-4.27.15-3.34,3.74,1.82,1.76L549,348.28l2.14,2.05,1.71,3.59,3.14-.06,2.74,1.86,2.17-.46.63-1.4,2.77.11,2.28,1.87,4.46-.4,1.88-2,2.26.77,1.11-.19-.75.92,1.06,1.61-.66,1.34.26,2.58L574.76,363l-1,2.62-.06,0-.46,1-.55,2.45-.82,1.69.16.16-.65.87-1.27.75-2-.17-2.43-.84-.51.85-.63-1.32-2.15-.44-2.59.28-1.16.95-2.06,1-1.21-.46-2.78-1-2.74-.88-3.63.05-.67-1.06-2.85-.4-.91-.57h-1l-.95-1.46-4-.71-2,.46-2.11,1.6-1,1.76.65,2.48L530.23,374l-1.22.75-2.9-1.56-4-1.37-2.4-.61-1.3-2.9-3.85-1.52-2.4-.57-1.17.28-3.21-1.12-1-.47-.73-1.65-1.43-.06-.44-1.51,1.81-1.66.39-3.19-1-.86v-1.4l1.44-1.74-.33-1.09L504.32,353l.07-1.54-2.25-.48-3.1,1.43-1.77.2-1.13-.81-3.08,0-2.66,1.35-1.35-.5-4.71.3-4.81.63-2.7,1.05L475,356.1l-3,.59-2.71,1.86-1.09,0-2.94-.76-2.61.24L461,356.55l-2.32,0-.94,2.25-1.84,3.45-2,1.34-2.81,1.53-1.88,2.31-.41,1.81-1.1,2.88.69,4-2.23,2.56-1.41.87-2.16,2.11L440,382l-1.35,1.17-.11.08h0l-.4.34h.2l-1.66,2.91-1.86,1.14-1.05,2-.09,1.71L433,393l-.87.45-1.63,2-1,2.27.18,1-.85,1.45-1.13.85-.25,2.71-.08.14,1.6,1.38.66,1.3-.28,1.44.35,1.49.31,2.85-.34,2.71-.8,1.47.25,1.6-.62,1.36-1.32,2-1.57.7,1.71,1.24,1.08,2.1-.28,1H428l0,.25-.07.25h.13l.37,1.77h0l.07.23.05.26h0l.14.45.81.57v.39l.76,1,1.21.18,1.24,1,0,0,.25.14.17.14,0,0,.59.34.36.54.32,1.29.81.65.68.34,1,1.05,1.19,1.63.34,2L439,442l1.51,1.57,2.12,1.2.7.19,1.89,1.8,2.36,1.51,2.54,2.13,3,1.39.78,0,.58.08,2.85-1.05,1.88-.79,3.29-.49,1.76,0,1.92.53,0,0,1.27,0,2.53.8,2.66-.86,1.52-.94,4.38-1.64,2.23-.58,2.29-.33h2.45l2,0,1.88,1.73.9,2,1.61,1.89,2.42.07,1.07-.62,1,.14,2.62-.9,0,.56.79.43.58,1.27,1.29.49,1,1.68-.39,2.09-1,3.28.54.43-.53,1.89-.67,2-.59.87-.14,1.12,1.77,3,1.88,2.32,2.86,2.81,2.26,2.9.67,1.86h0l.1.23.08.24h0l.26.56-.29.59,1.46,1.85,1.37,4.44-.78,1-.21.76.72,1.77.75,1.72.83,1,.14,1.47-.28,2.05-.85,1.2L511,500.47l-.69,1.21-.92,2.64-.13,1.19-1,2.7-.39,2.58.27,1.91.17,2.23,2.31,2.9.6,1.82,1.48,3.6,1.48,2.51,1,1.19.34,1.53.07,3.67.94,4.75.69,2.22.63,3.09,1.1,2.3,2.12,2.45,2,4,1.45,2.82,1.8,3,.07,2.32-1,.64,1,2.37,0,1.91.66,1.69.2-.71,1,1.22,1,.06,1.2,1.22,1.47-.09,1.75-1.29,2.38-.55,2.83-1.3,1.13.18,1.69-.41,3.07.66,1.38-.64,1.83.54.39-1,1.28-.15,3-1.34,2.16-1.54,2-2,3.2-3.41,1.61-2.37.75-1.62,1.15-1.58,2.45-2.09.79-1.5.35-2.66.64-2.1h0l0-.26.08-.24h0l.23-1.57-.77-.23-.19-1,1.1-1,3.33-1.64,2.31-1,1.24-1.13.54-1.54-.66-.52.4-1.25.1-3.38-.51.16,0-.58-.59-1.87L573.06,522l.21-1.91,1.05-.63,2-2.1,1-.52,3.2-3.17,3.12-1.39,2.56-1.11,1.87-1.85,1.14-2.09.87-2.16-.51-1.45-.11-4.47-.35-2.45.12-2.88-.41-1.14.15-.11-.24-.15-.09-.23-.13.09-.81-.49L586.58,489l-.94-1.68.17-1.31-.15-.81.77-1.69-.11-.93-1.79-1-.15-1.4,1.25-3.33,1.14-.93.56-1.89.87-1.08.4-1.91,1-.19.71-1.2,1.71-1,0,.06.18-.19.22-.12-.05,0,.49-.51.68-1.5,3-3.32,2.59-2.11,4.22-2.77,2.83-2.29,3.31-3.82,2.41-3.16,2.42-4.12,1.73-3.6,1.36-3.18.78-3,.62-1.05v-1.53l.26-1.68-.09-1.05-1.37,0-1.35,1-1.47.28-1.23.41-2.49.16-1.06.52-1.39.2-2.42.87-3.09.33-2.61.72H599.3l-1.15-1.09-.57-1.2-1-.57-.82-.51,1.31-.55.11-1.44-.58-.76.09-.07-.26-.16-.13-.18-.06.06-1.2-.75-2.38-2.62-1.6-1.67-3.79-2.7-1.49-1.36-.76-2.64-1.56-3.24.07-.08-.17-.12-.14-.29-.1.12-2.35-1.63-1-3.4-.39-2.93.63-.56-.85-2.77h.18l-.29-.36-.05-.14H579l-.45-.56-3.18-2.64-.09-1.74.64-.61-2.63-3.54-.91-1.76-1-1.65-2.13-4.89-1.7-3.15-.66-1.89,1.31,3,2.41,2.68.84-.71.84-1.78.59-2.36.26-.41-.2.73-.12,1.08-.51,2.06h1.58l3,4.53,1.09,2.32.85.74.72,1.48-.15.69,1,1.92,1.56.65,1.25,1.13,1.56,3.25-.12,1.78.32,2.08,1.94,3,1.28.49,1.86,2,.8,2.4,1.5,2.46,1.42,1.06.22,1.14.86.89.33,1.16.11,1.16-.35.57.26,1.18-.67.17,1,1.45.56,2.13.42.79-.08,1.56.81,1.86,2.15.16.91-.38,1.48.06.46-.77.71-.21.61-.74.59-.14,2.4-.16,1.79-.55,1.63-1.17.77.16,1.34-.17,2.53-2,4.46-1.35,2.93-1.28.08-1.1.48-1.14,1.91-.74,1.25-.16,1.89-1,1.56.27,1.56-.93v-1.19l.93-.62,1.76,0,.77-.75.27-1.4,1.59-1,1.35,0,.39-.55-.34-2,.42-1.4.46-.56,1.3.16,1.11-2.15,1.13-1,.51-.9,1-1.85V399l-1.09-.41-2-2.75-1.76-.58-2-.39-1.48-1-1.19-2-.36-2.32.32-.48.34-1.53-.67-.52-1,1.32-1.7,1.82-2.11,2-1.84,2-1.58-.09-2.38-.07-1.93.42-.11-.86-.58.17-.39-.88.59-1.76-.05-1.94-1-1.18-1,.45-.82,1.77.08,1-.21-.54-.81-.92-.32-.91.27-1-.19-1.45L614.41,385l-.49-1.13-1.37-.71-1.06-2.63-.87-2.33.25-.73-.46-1.12,1.15.11.13.13.1-.11.51,0-.29-.31.78-.93,1.69,1,1.41-.49,2,4.1,1.87,3,0,.07,2.75.92,2.79,2.37,3.62,1.11,2.85-1.53,2.08-.54,1.16.48,1.21,3.85,3.29.43,3.08.71,5,.88,0,.09.34,0,.19,0v-.06l3.76-.42,4.59-.05,5-.56,2,2.21.87,2.26,2.11.79,3.24,2.54.67,1-1.38,1.11,3.91,3.89,2.13.38,3.86-1.69.48,2.44v3.64l.83,3.77,1.16,5.64,2.57,4,.47,1.74.7,3.58,1.53,2.84,1,1.31,1.06,2.82,1.3,4,2.86,2.88,1.31-.93,1-1.92L698,438l-1-1.09,1.11-1.88,1.55-.15,0-5,1.18-2.72-.15-2.45-.57-3.69.76-2,1.16-.14,2.61-1.05,1.54-.79v-1.36l2.71-1.86,2.13-1.87,3.1-3.42,4-2,1.65-1.9-.15-2.13,3.19-.58,2.07.05.4-1.06.82.2,1,.41.4-.54,1.24.63,1-2-.21-1,2.13.1,1.08,1.6.53,1.42.15,1.49.8,1.6v0l2.09,2.55,1.46.34-.29.92,2.24,3.45.55,2.64-1,3.77,2,.76,1.67.28,3.29-2.13,1.61-1.27,1,2.09.51,3.65.91,3.44,1.12,1.49-.22,3.09.91,1.64-.84,2.13.28,2.11-.82,2.69-.32,1.82.81,2.39.57-2,1,1,1.45,1.55.46,1.34,1.13,1.11.58,1.12-.31,2.05,1,1.56.4,2.32,1.62,1.88.34,1.46,3.39,2.25,2.72,2.12,2.31-.22.06-1.21-1.12-2.52-1-.8-.2-1.58-.25-.9.29-1.25-.16-1.92-1.25-2-1.66-1.69-.65-.28-1.5-1.5-1.69-.33-1.46-1.5-.51-2.41-1.2-2.71-1.76-.08-.17-1.78,2.41-6.6.21-3h1.94l-.41,2.25,2.64-.06,2.4,1.24,1.39,2.91,1.2,1.55,2.39.42,1.88,1.46-.77,1.84,1.22,2.17,3.76-2.82,2.26-2.34,3.22-1.83,2.41-1.94.39-5.17L781,420.52l-1.75-2.42-2.56-1.82L772,409.5l.57-1.88,2.29-2.75,3.74-2.56,1.15-.42,3.37.86-.55,1,.84,2.46,1.91-.22,1-3.15,2.87-.45,3.92-1.5,1.49-1.39,1,1,1.83-1.44,3.09-.34,4-2.59,3.86-2.82,2.67-3.76,2.26-4.09,2-3.31,1.61-.29.76-2.7.45-2.77-1.72-1.05-.56-1.43,1.7-.86.05-2.67-1.93-2.57-1.69-3-1.13-3.4-2.89-1.78,1.28-2.13,2.68-1.69,1.33-1.86,4.12-1-.56-2.27-1.94-.09-2.59-1.42-3.15,2.51-1.94-.89-.09-1.61-2.37-.6-1.33-2.17,1.24-1.46,2.76-.17,1.78-2.41,3.11-2.49,2.25-1.21,1.22,1.6-2.18,2.41.59,1.42-2,2.24L818,345l2.1-1.7,3.72-1,1.24.92,1.58.4.13.38-.72,1.95.21.54-.54.35-.9,1.82,1,.72.6.27.13.82,1.2-.42.27-.53,1.08.53,1.7,2.66-2,.57,1.3,3.78-.51,2.55.35,2.13,2.77-.32L835,360l2.61-.68,1.13-2,0-4-.72-2.39-2.36-4.07,0,0-.1-.1-.22-.38-.05.11L834,345l-.91-.49.19-.22.08-1.54,1.09-.88,1.83-.59,1.18-1.16.47-.61,1.54-.86-.12-2.75.77-1.17,1.12-1.17.85.18.2.33.09-.26.34.07-.23-.39.39-1.11,3.52-2.61,1.69,1.78,1.94-.06,3.8-2.28,1.87-2.34,3.78-4.53,3.81-4.66,1-2.86,4.2-6,1.31-7,.24-5.22,2.19-4.52-.09-4.06-4.1-5.26-.07-.08-3.33-.34-1.76,2.34-2.45-.94-1.39-3-4.08-.57,10.43-11.43,9-10.26,9.1-1.6,8.63.94,3.46-2.69,4,.78-.2,4,4.65-.6,6.62-1.5-2.43-3.54,6.86-9.35,6.93-1.91,2.34,7.28,7.45-6.66,1.65-4.84,2.88-.43-2.13,7.93-5,4.54-4.84,5.75-5,6.71-4.45,1.2-.16,2.54-2.32,3-1.39,7.06v0l1.56,10.7,1.21,6.72L915,298.1l4.38-4.53.83-4.58,4.18-1.14,1-5.43,5-2.53-1.24-2.24,1.12-3.88,2.65-.19.4-7.87-3.21-1.17-.09-1.9,3.32-5.15.87-3.47,3.64.73,2.57-2.27,1.26,2,7.35-4.45,4.14,4,1.15-2.84,4-3.46,4.25-4.06,2.43-.67,7.81-4.49,5.33,1.35.84-1.86-.35-2.66-1.31-1.69-1.65-5.16-2.22-3,3.15.42,3.69-3,1.73-3.05-1.22-3.08,2.67-1.31-.51,2.14,1.68,2.61,3.29-.89,2.64,1,.63,2.87,3.8,2,2.18,2.3,2.85.2,1.26-1.51.07-6.34,4.47-.68,3-3.2ZM612.81,347.78l-.07-1.63,1-.8.52-1.37.45-2.64,2.6-.33-1.23-1.41-1.28-.17-1.39-2.53-1.46-2-3-4.39.28-2.59-2.51-3.64,2.64-3.87,2.74-.66,1.26-2.36,2.58-.86,3.14-1.73,2.33,1,2.65-.19.45,2.25-.47,3.6-2.24-.54-2.62.7-.11,2.79-2.76-.38.13,1.72,1.57,1,1.28,3.49,3.26,1.31.45,1.12-.68,1.54.15.87,0,0,.05.13.08.45.06-.06.75,2,.48-.06.26-2.58,1.89-.8.71,1.89,1.87,2.07-2.08,1-2.81-1-.73,3.64,1.84.22-.7,2.39,2.22,1.23-.39,3.57v0l.51,2.46-.2.62-4.2.88-3.86-.58L616.28,351l-2.64-.75Zm-74.57.27-.07.11-.33-.1-.07-.05Zm-2.12,0,0,.07-.16,0Zm42.19-27.39-3.17.27-1.26-.88-1.29-1.27,1.07-.84,2.37-1.49,2.63-.21,1.88-1.33,1.86-.27v0l.22-.05.3-.05v0l2-.54,0,.42-4.31,1.74,1.69,1.72L580.21,321l-2.31.73Z"/><polygon points="983.9 178.63 986.98 176.47 987.27 175.01 983 172.38 980.45 172.35 976.35 176.53 976.92 179.63 983.9 178.63"/><polygon points="870.17 151.6 867.34 155.76 868.02 156.49 873.9 157.58 878.44 157.51 878.05 154.57 873.9 150.61 870.17 151.6"/><polygon points="869.82 140.85 880.28 141.15 882.59 132.64 872.3 126.47 864.71 125.92 860.85 128.2 859.31 136.06 859.29 136.17 865.04 143.43 869.82 140.85"/><polygon points="872.25 293.55 873.89 297.97 873.77 303.73 873.12 307 873.44 311.54 873.13 315.6 873.76 319.7 875.78 316.26 878.1 318.92 878.2 315.36 875.49 311.16 877.11 305.42 881.5 306.91 878.51 298.76 877.36 294.29 877.42 289.76 876.45 285.26 875.65 281.79 873.9 282.73 875.03 284.98 872.5 287.09 872.25 293.55"/><polygon points="894.99 142.56 898.53 137.93 891.17 134.92 885.67 133.15 884.92 137.16 890.24 141.53 894.99 142.56"/><polygon points="619.51 168.37 619.94 173.49 625.04 175.85 625.79 179.72 635.2 180.85 637.21 179.96 631.7 172.65 631.14 165.27 635.51 156.18 639.67 146.4 648.34 136.29 656.86 130.97 666.85 125.19 668.81 121.32 666.74 116.17 661.06 117.83 656.21 122.34 646.94 124.54 637.57 132.01 631.2 137.95 631.97 142.85 625.14 152.04 627.73 153.27 622.33 161.29 622.29 161.36 622.39 166.4 619.51 168.37"/><polygon points="605.61 69.34 608.89 73.52 612.44 70.61 612.83 67.92 615.25 66.7 619.08 64.43 620.26 61.57 615.78 57.43 612.98 60.52 611.68 63.79 611.2 59.89 606.71 60.12 600.43 63.69 607.16 64.25 605.61 69.34"/><polygon points="736.89 82.37 741.6 88.21 749.48 92.47 749.57 92.52 755.96 90.64 756.66 76.85 756.66 76.79 750.16 60.66 744.58 51.42 738.29 55.68 730.83 67.77 734.75 71.12 736.89 82.37"/><polygon points="770.35 98.78 771.21 92.8 764.03 84.37 761.7 83.27 759.21 85.1 753.95 104.24 770.35 98.78"/><polygon points="929.58 492.67 927.19 491.69 928.74 494.2 931.37 494.23 930.2 492.77 929.58 492.67"/><polygon points="924.01 486.89 923.31 485.9 920.92 484.53 919.5 483.79 918.7 484.35 920.01 485.52 921.57 486.54 924.25 487.99 924.01 486.89"/><polygon points="914.28 481.66 914 482.61 915.25 483.86 916.63 484.59 917.75 484.27 916.23 483.04 914.28 481.66"/><polygon points="929.15 490.5 927.92 489.01 926.86 486.64 925.4 486.64 926.09 488.66 928.41 491.42 929.15 490.5"/><polygon points="925.27 489.71 923.09 489.18 922.84 490.71 923.55 491.25 925.43 491.58 926.94 491.5 926.26 490.38 925.27 489.71"/><polygon points="538.6 110.41 545.23 104.73 541.01 101.58 539.86 96.18 533.55 99.2 535.28 103.64 533.28 107.17 538.6 110.41"/><polygon points="512.2 102.57 516.32 106.38 513.79 110.97 520.01 118.85 523.72 118.33 525.07 107.71 527.52 105.22 529.08 95.15 536.26 89.39 526.88 77.92 523.26 72.25 518.81 72.85 517.75 78.27 514.16 78.46 512.57 72.75 504.52 78.75 506.74 90.75 512.2 102.57"/><polygon points="531.07 76.09 531.56 80.36 540.05 82.99 548.36 81.14 552.65 72.36 547.03 66.43 539.68 62.02 536.87 67.04 532.9 63.06 523.88 67.98 527.1 75.81 531.07 76.09"/><polygon points="670.69 620.38 668.63 618.85 667.93 621.89 668.01 624.47 672.73 624.16 673.6 622 673.47 620.95 670.69 620.38"/><polygon points="815.5 398.48 817.19 393.61 817.73 391.56 816.13 390.43 813.73 392.9 812 396.03 812.33 398.36 814.08 401.41 815.5 398.48"/><polygon points="40.44 406.58 38.78 405.77 38.38 405.66 38.07 406.21 38.24 406.75 37.87 407.12 37.63 407.63 38.1 408.74 38.02 409.67 39.03 410.28 39.55 409.66 40.41 409.22 41.59 408.55 41.74 408.19 40.96 407.03 40.44 406.58"/><polygon points="38.44 404.42 37.52 403.81 36.31 403.46 36.13 403.63 36.3 403.03 34.46 402.86 33.97 403.71 35.93 403.83 35.85 403.91 35.89 404.33 36.27 404.61 36.83 405.34 38.02 405.08 38.44 404.42"/><polygon points="45.83 263.78 44.22 264.64 41.55 266.6 42.02 269.25 43.66 270.76 46.66 268.67 49.24 266.05 47.86 264.17 45.83 263.78"/><polygon points="32.45 401.33 31.27 401.98 31.57 402.31 31.98 403.08 33.07 403.2 33.41 403.27 33.8 402.83 32.82 401.64 32.45 401.33"/><polygon points="8.73 250.58 5.5 251.72 7.56 253.55 9.51 254.66 11.51 253.65 11.2 251.15 8.73 250.58"/><polygon points="0 235.92 2.5 234.38 2.84 233.37 0 232.53 0 235.92"/><polygon points="27.95 399.82 27.45 400.17 27.08 400.67 28.41 401.45 28.97 400.95 28.88 399.92 27.95 399.82"/><polygon points="106.4 283.05 103.45 283.47 101.88 282.73 101.67 284.64 102.21 286.82 103.65 288.3 104.7 290.44 106.47 292.63 108.18 292.65 105.53 288.64 106.4 283.05"/><polygon points="944.27 505.56 942.46 504.36 942.53 507.05 943.05 508.14 943.74 507.95 944.15 508.15 944 509.33 945.12 510.84 946.57 510.24 944.6 508.36 944.85 508.49 944.27 505.56"/></g></g></svg>