<svg xmlns="http://www.w3.org/2000/svg" viewBox="0 0 522.897 522.897">
  <defs>
    <style>
      .cls-1 {
        opacity: 0.08;
      }
    </style>
  </defs>
  <path id="golden" class="cls-1" d="M522.9,0h-.615L501.11,21.173,479.937,0h-1.229L457.535,21.173,436.362,0h-1.229L413.96,21.173,392.787,0h-1.229L370.386,21.173,349.213,0h-1.229L326.811,21.173,305.638,0h-1.229L283.236,21.173,262.063,0h-1.229L239.661,21.173,218.488,0H217.26L196.087,21.173,174.914,0h-1.229L152.512,21.173,131.339,0H130.11L108.937,21.173,87.764,0H86.535L65.362,21.173,44.189,0H42.96L21.787,21.173.614,0H0V.614L21.173,21.787,0,42.96v44.8l21.173,21.173L0,130.11v44.8l21.173,21.173L0,217.26v44.8l21.173,21.173L0,304.409v44.8l21.173,21.173L0,391.559v44.8l21.173,21.173L0,478.708V522.9H.614l-.179-.179V480.373L21.173,501.11,42.96,522.9h1.229L65.977,501.11l20.737-20.737v42.346l-.179.179h1.229l-.179-.179V480.373l20.737,20.737L130.11,522.9h1.229l21.787-21.787,20.737-20.737v42.346l-.179.179h1.229l-.179-.179V480.373l20.737,20.737L217.26,522.9h1.229l21.787-21.787,20.737-20.737v42.346l-.179.179h1.229l-.179-.179V480.373l20.737,20.737L304.409,522.9h1.229l21.787-21.787,20.737-20.737v42.346l-.179.179h1.229l-.179-.179V480.373l20.737,20.737L391.559,522.9h1.229l21.787-21.787,20.737-20.737v42.346l-.179.179h1.229l-.179-.179V480.373l20.737,20.737L478.708,522.9h1.229l21.787-21.787,20.737-20.737v42.346l-.179.179h.615V478.708l-21.173-21.173L522.9,436.362v-44.8l-21.173-21.173L522.9,349.213v-44.8l-21.173-21.173L522.9,262.063v-44.8l-21.173-21.173L522.9,174.914v-44.8l-21.173-21.173L522.9,87.764V42.96L501.724,21.787,522.9.614ZM457.535,369.771,436.184,348.42V306.074l20.737,20.737L478.708,348.6Zm21.352-20.123v42.346l-21.352,21.352-21.173-21.173,21.787-21.787Zm-434.7-1.05,21.787-21.787,20.737-20.737V348.42L65.362,369.771Zm42.346,43.575L65.362,413.346,44.011,391.994V349.648l20.737,20.737ZM392.787,261.449l21.787-21.787,20.737-20.737V261.27L413.96,282.622Zm42.346,43.575L413.96,326.2l-21.352-21.352V262.5l20.737,20.737Zm.179-130.9L413.96,195.472,392.787,174.3l21.787-21.787,20.737-20.737Zm.436.793,21.173,21.173L435.748,217.26l-21.173-21.173Zm-22.4,21.173,21.787,21.787L413.96,239.047,392.609,217.7V175.349Zm0,43.575-21.173,21.173L371,239.661l21.173-21.173ZM371,283.236,391.737,262.5v42.346L370.386,326.2l-21.173-21.173Zm-.614-.614L349.034,261.27V218.924l20.737,20.737,21.787,21.787ZM391.737,217.7l-21.352,21.352-21.173-21.173L371,196.087l20.737-20.737Zm-21.352-22.223L349.034,174.12V131.775l20.737,20.737L391.559,174.3Zm-.614.614L348.6,217.26l-21.173-21.173L348.6,174.914Zm-64.133,65.362,21.787-21.787,20.737-20.737V261.27l-21.352,21.352Zm42.346,43.575L326.811,326.2l-21.352-21.352V262.5L326.2,283.236Zm.179-130.9-21.352,21.352L305.638,174.3l21.787-21.787,20.737-20.737ZM326.2,196.087l21.787,21.787-21.173,21.173L305.459,217.7V175.349Zm0,43.575-21.173,21.173L283.85,239.661l21.173-21.173ZM283.85,283.236,304.588,262.5v42.346L283.236,326.2l-21.173-21.173Zm-.614-.614L261.884,261.27V218.924l20.737,20.737,21.787,21.787ZM304.588,217.7l-21.352,21.352-21.173-21.173,21.787-21.787,20.737-20.737Zm-21.352-22.223L261.884,174.12V131.775l20.737,20.737L304.409,174.3Zm-.614.614L261.449,217.26l-21.173-21.173,21.173-21.173Zm-64.133,65.362,21.787-21.787,20.737-20.737V261.27l-21.352,21.352Zm42.346,43.575L239.661,326.2,218.31,304.845V262.5l20.737,20.737Zm.179-130.9-21.352,21.352L218.488,174.3l21.787-21.787,20.737-20.737Zm-21.966,21.966,21.787,21.787-21.173,21.173L218.31,217.7V175.349Zm0,43.575-21.173,21.173L196.7,239.661l21.173-21.173ZM196.7,283.236,217.438,262.5v42.346L196.087,326.2l-21.173-21.173Zm-.614-.614L174.735,261.27V218.924l20.737,20.737,21.787,21.787ZM217.438,217.7l-21.352,21.352-21.173-21.173L196.7,196.087l20.737-20.737Zm-21.352-22.223L174.735,174.12V131.775l20.737,20.737L217.26,174.3Zm-.614.614L174.3,217.26l-21.173-21.173L174.3,174.914Zm-64.133,65.362,21.787-21.787,20.737-20.737V261.27l-21.352,21.352Zm42.346,43.575L152.512,326.2,131.16,304.845V262.5L151.9,283.236Zm.179-130.9-21.352,21.352L131.339,174.3l21.787-21.787,20.737-20.737ZM151.9,196.087l21.787,21.787-21.173,21.173L131.16,217.7V175.349Zm0,43.575-21.173,21.173-21.173-21.173,21.173-21.173Zm-42.346,43.575L130.289,262.5v42.346L108.937,326.2,87.764,305.023Zm-.614-.614L87.585,261.27V218.924l20.737,20.737,21.787,21.787ZM130.289,217.7l-21.352,21.352L87.764,217.874l21.787-21.787,20.737-20.737Zm-21.352-22.223L87.585,174.12V131.775l20.737,20.737L130.11,174.3Zm-.614.614L87.15,217.26,65.977,196.087,87.15,174.914ZM86.714,174.12,65.362,195.472,44.189,174.3l21.787-21.787,20.737-20.737ZM64.748,196.087l21.787,21.787L65.362,239.047,44.011,217.7V175.349Zm1.229,43.575,20.737-20.737V261.27L65.362,282.622,44.189,261.449Zm-1.229,43.575,21.787,21.787L65.362,326.2,44.011,304.845V262.5Zm1.229,0L87.15,262.063l21.173,21.173L87.15,304.409Zm21.609,22.837,20.737,20.737L130.11,348.6l-21.173,21.173L87.585,348.42Zm21.966,64.312,20.737-20.737v42.346l-21.352,21.352L87.764,392.173Zm0-43.575,21.173-21.173L151.9,326.811l-21.173,21.173Zm21.609,22.838L151.9,370.386l21.787,21.787-21.173,21.173L131.16,391.994Zm.179-1.05,21.787-21.787,20.737-20.737V348.42l-21.352,21.352Zm21.787-65.362L174.3,262.063l21.173,21.173L174.3,304.409Zm21.609,22.837,20.737,20.737L217.26,348.6l-21.173,21.173L174.735,348.42ZM196.7,370.386l20.737-20.737v42.346l-21.352,21.352-21.173-21.173Zm0-43.575,21.173-21.173,21.173,21.173-21.173,21.173Zm21.609,22.838,20.737,20.737,21.787,21.787-21.173,21.173L218.31,391.994Zm.179-1.05,21.787-21.787,20.737-20.737V348.42l-21.352,21.352Zm21.787-65.362,21.173-21.173,21.173,21.173-21.173,21.173Zm21.609,22.837,20.737,20.737L304.409,348.6l-21.173,21.173L261.884,348.42Zm21.966,64.312,20.737-20.737v42.346l-21.352,21.352-21.173-21.173Zm0-43.575,21.173-21.173L326.2,326.811l-21.173,21.173Zm21.609,22.838L326.2,370.386l21.787,21.787-21.173,21.173-21.352-21.352Zm.179-1.05,21.787-21.787,20.737-20.737V348.42l-21.352,21.352Zm21.787-65.362L348.6,262.063l21.173,21.173L348.6,304.409Zm21.609,22.837,20.737,20.737L391.559,348.6l-21.173,21.173L349.034,348.42ZM371,370.386l20.737-20.737v42.346l-21.352,21.352-21.173-21.173Zm0-43.575,21.173-21.173,21.173,21.173-21.173,21.173Zm21.609,22.838,20.737,20.737,21.787,21.787L413.96,413.346l-21.352-21.352Zm.179-1.05,21.787-21.787,20.737-20.737V348.42L413.96,369.771Zm21.787-65.362,21.173-21.173,21.173,21.173-21.173,21.173Zm21.787,21.787,21.787-21.787L478.887,262.5v42.346L457.535,326.2Zm21.173-22.4L436.184,261.27V218.924l20.737,20.737,21.787,21.787Zm-21.173-64.748,21.787-21.787,20.737-20.737V217.7l-21.352,21.352Zm21.173-22.4L436.184,174.12V131.775l20.737,20.737L478.708,174.3Zm-21.173-64.748,21.787-21.787L478.887,88.2v42.346L457.535,151.9Zm21.173-22.4L436.184,86.971V44.625l20.737,20.737L478.708,87.15Zm-.614.614L435.748,130.11l-21.173-21.173,21.173-21.173ZM435.312,86.971,413.96,108.323,392.787,87.15l21.787-21.787,20.737-20.737Zm-21.966,21.966,21.787,21.787L413.96,151.9l-21.352-21.352V88.2Zm0,43.575-21.173,21.173L371,152.512l21.173-21.173Zm-21.609-21.966L370.386,151.9l-21.173-21.173L371,108.937,391.737,88.2Zm-21.352-22.223L349.034,86.971V44.625l20.737,20.737L391.559,87.15Zm-.614.614L348.6,130.11l-21.173-21.173L348.6,87.764ZM348.163,86.971l-21.352,21.352L305.638,87.15l21.787-21.787,20.737-20.737ZM326.2,108.937l21.787,21.787L326.811,151.9l-21.352-21.352V88.2Zm0,43.575-21.173,21.173L283.85,152.512l21.173-21.173Zm-21.609-21.966L283.236,151.9l-21.173-21.173,21.787-21.787L304.588,88.2Zm-21.352-22.223L261.884,86.971V44.625l20.737,20.737L304.409,87.15Zm-.614.614L261.449,130.11l-21.173-21.173,21.173-21.173ZM261.013,86.971l-21.352,21.352L218.488,87.15l21.787-21.787,20.737-20.737Zm-21.966,21.966,21.787,21.787L239.661,151.9,218.31,130.546V88.2Zm0,43.575-21.173,21.173L196.7,152.512l21.173-21.173Zm-21.609-21.966L196.087,151.9l-21.173-21.173L196.7,108.937,217.438,88.2Zm-21.352-22.223L174.735,86.971V44.625l20.737,20.737L217.26,87.15Zm-.614.614L174.3,130.11l-21.173-21.173L174.3,87.764ZM173.863,86.971l-21.352,21.352L131.339,87.15l21.787-21.787,20.737-20.737ZM151.9,108.937l21.787,21.787L152.512,151.9,131.16,130.546V88.2Zm0,43.575-21.173,21.173-21.173-21.173,21.173-21.173Zm-21.609-21.966L108.937,151.9,87.764,130.724l21.787-21.787L130.289,88.2Zm-21.352-22.223L87.585,86.971V44.625l20.737,20.737L130.11,87.15Zm-.614.614L87.15,130.11,65.977,108.937,87.15,87.764ZM86.714,86.971,65.362,108.323,44.189,87.15,65.977,65.362,86.714,44.625ZM64.748,108.937l21.787,21.787L65.362,151.9,44.011,130.546V88.2Zm0,43.575L43.575,173.685,22.4,152.512l21.173-21.173Zm0,87.15L43.575,260.834,22.4,239.661l21.173-21.173Zm0,87.15L43.575,347.984,22.4,326.811l21.173-21.173Zm0,87.15L43.575,435.133,22.4,413.96l21.173-21.173Zm1.229,0,20.737-20.737v42.346L65.362,456.921,44.189,435.748Zm0-43.575L87.15,349.213l21.173,21.173L87.15,391.559Zm21.609,22.838,20.737,20.737,21.787,21.787-21.173,21.173L87.585,435.569Zm21.966,20.737,21.173-21.173L151.9,413.96l-21.173,21.173Zm43.575,0,20.737-20.737v42.346l-21.352,21.352-21.173-21.173Zm0-43.575L174.3,349.213l21.173,21.173L174.3,391.559Zm21.609,22.838,20.737,20.737,21.787,21.787-21.173,21.173-21.352-21.352ZM196.7,413.96l21.173-21.173,21.173,21.173-21.173,21.173Zm43.575,0,20.737-20.737v42.346l-21.352,21.352-21.173-21.173Zm0-43.575,21.173-21.173,21.173,21.173-21.173,21.173Zm21.609,22.838,20.737,20.737,21.787,21.787-21.173,21.173-21.352-21.352ZM283.85,413.96l21.173-21.173L326.2,413.96l-21.173,21.173Zm43.575,0,20.737-20.737v42.346l-21.352,21.352-21.173-21.173Zm0-43.575L348.6,349.213l21.173,21.173L348.6,391.559Zm21.609,22.838,20.737,20.737,21.787,21.787-21.173,21.173-21.352-21.352ZM371,413.96l21.173-21.173,21.173,21.173-21.173,21.173Zm43.575,0,20.737-20.737v42.346L413.96,456.921l-21.173-21.173Zm0-43.575,21.173-21.173,21.173,21.173-21.173,21.173Zm21.609,22.838,20.737,20.737,21.787,21.787-21.173,21.173-21.352-21.352ZM458.15,413.96l21.173-21.173L500.5,413.96l-21.173,21.173Zm0-87.15,21.173-21.173L500.5,326.811l-21.173,21.173Zm0-87.15,21.173-21.173L500.5,239.661l-21.173,21.173Zm0-87.15,21.173-21.173L500.5,152.512l-21.173,21.173Zm0-87.15,21.173-21.173L500.5,65.362,479.323,86.535Zm0-43.575L478.887,1.05V43.4L457.535,64.748,436.362,43.575ZM435.748.614l21.173,21.173L435.748,42.96,414.575,21.787Zm-43.139.436,20.737,20.737,21.787,21.787L413.96,64.748,392.609,43.4Zm20.737,64.312L392.173,86.535,371,65.362l21.173-21.173ZM371,21.787,391.737,1.05V43.4L370.386,64.748,349.213,43.575ZM348.6.614l21.173,21.173L348.6,42.96,327.425,21.787Zm-43.139.436L326.2,21.787l21.787,21.787L326.811,64.748,305.459,43.4ZM326.2,65.362,305.023,86.535,283.85,65.362l21.173-21.173ZM283.85,21.787,304.588,1.05V43.4L283.236,64.748,262.063,43.575ZM261.449.614l21.173,21.173L261.449,42.96,240.276,21.787ZM218.31,1.05l20.737,20.737,21.787,21.787L239.661,64.748,218.31,43.4Zm20.737,64.312L217.874,86.535,196.7,65.362l21.173-21.173ZM196.7,21.787,217.438,1.05V43.4L196.087,64.748,174.914,43.575ZM174.3.614l21.173,21.173L174.3,42.96,153.126,21.787ZM131.16,1.05,151.9,21.787l21.787,21.787L152.512,64.748,131.16,43.4ZM151.9,65.362,130.724,86.535,109.551,65.362l21.173-21.173ZM109.551,21.787,130.289,1.05V43.4L108.937,64.748,87.764,43.575ZM87.15.614l21.173,21.173L87.15,42.96,65.977,21.787ZM44.011,1.05,64.748,21.787,86.535,43.575,65.362,64.748,44.011,43.4ZM64.748,65.362,43.575,86.535,22.4,65.362,43.575,44.189ZM22.4,21.787,43.139,1.05V43.4L21.787,64.748.614,43.575ZM.436,86.971V44.625L21.173,65.362,42.96,87.15,21.787,108.323ZM22.4,108.937,43.139,88.2v42.346L21.787,151.9.614,130.724ZM.436,174.12V131.775l20.737,20.737L42.96,174.3,21.787,195.472ZM22.4,196.087l20.737-20.737V217.7L21.787,239.047.614,217.874ZM.436,261.27V218.924l20.737,20.737L42.96,261.449,21.787,282.622ZM22.4,283.236,43.139,262.5v42.346L21.787,326.2.614,305.023ZM.436,348.42V306.074l20.737,20.737L42.96,348.6,21.787,369.771ZM22.4,370.386l20.737-20.737v42.346L21.787,413.346.614,392.173ZM.436,435.569V393.223L21.173,413.96,42.96,435.748,21.787,456.921Zm.179,43.753L22.4,457.535,43.139,436.8v42.346L21.787,500.5Zm42.96,42.96L22.4,501.11l21.173-21.173L64.748,501.11ZM65.362,500.5,44.011,479.144V436.8l20.737,20.737,21.787,21.787ZM87.15,478.708,65.977,457.535,87.15,436.362l21.173,21.173Zm.614.615,21.787-21.787L130.289,436.8v42.346L108.937,500.5Zm42.96,42.96L109.551,501.11l21.173-21.173L151.9,501.11ZM152.512,500.5,131.16,479.144V436.8L151.9,457.535l21.787,21.787ZM174.3,478.708l-21.173-21.173L174.3,436.362l21.173,21.173Zm.614.615L196.7,457.535,217.438,436.8v42.346L196.087,500.5Zm42.96,42.96L196.7,501.11l21.173-21.173,21.173,21.173ZM239.661,500.5,218.31,479.144V436.8l20.737,20.737,21.787,21.787Zm21.787-21.787-21.173-21.173,21.173-21.173,21.173,21.173Zm.614.615,21.787-21.787L304.588,436.8v42.346L283.236,500.5Zm42.96,42.96L283.85,501.11l21.173-21.173L326.2,501.11ZM326.811,500.5l-21.352-21.352V436.8L326.2,457.535l21.787,21.787ZM348.6,478.708l-21.173-21.173L348.6,436.362l21.173,21.173Zm.614.615L371,457.535,391.737,436.8v42.346L370.386,500.5Zm42.96,42.96L371,501.11l21.173-21.173,21.173,21.173ZM413.96,500.5l-21.352-21.352V436.8l20.737,20.737,21.787,21.787Zm21.787-21.787-21.173-21.173,21.173-21.173,21.173,21.173Zm.614.615,21.787-21.787L478.887,436.8v42.346L457.535,500.5Zm42.96,42.96L458.15,501.11l21.173-21.173L500.5,501.11Zm42.96-42.96L501.11,500.5l-21.352-21.352V436.8L500.5,457.535Zm.179-43.753L501.11,456.921l-21.173-21.173,21.787-21.787,20.737-20.737Zm-.179-43.4L501.11,413.346l-21.352-21.352V349.648L500.5,370.386Zm.179-43.753L501.11,369.771,479.937,348.6l21.787-21.787,20.737-20.737Zm-.179-43.4L501.11,326.2l-21.352-21.352V262.5L500.5,283.236Zm.179-43.754L501.11,282.622l-21.173-21.173,21.787-21.787,20.737-20.737Zm-.179-43.4L501.11,239.047,479.758,217.7V175.349L500.5,196.087Zm.179-43.753L501.11,195.472,479.937,174.3l21.787-21.787,20.737-20.737Zm-.179-43.4L501.11,151.9l-21.352-21.352V88.2L500.5,108.937Zm.179-43.753L501.11,108.323,479.937,87.15l21.787-21.787,20.737-20.737Zm-.179-43.4L501.11,64.748,479.758,43.4V1.05L500.5,21.787Z"/>
</svg>
